<svg width="4043" height="680" viewBox="0 0 4043 680" fill="none" xmlns="http://www.w3.org/2000/svg">
<g clip-path="url(#clip0_704_2629)">
<path d="M2077.21 475.519L2132.33 435.212L2161.9 454.022L2206.26 421.776H2238.52L2303.04 385.499L2453.59 471.488L2492.57 460.74L2671.9 574.272L2752 527.919L2769.2 545.813L2846.41 518.947L2885.02 521.878L2907.01 488.174L2941.71 479.87L2996.93 485.243L3056.78 446.01L3102.42 396.845L3128.39 390.552L3148.85 356.727L3180.63 376.956L3189.7 403.657L3262.2 454.199L3287.96 465.643L3327.08 458.491L3389.43 397.973L3403.75 389.883L3421.18 409.798L3451.07 388.016L3457.29 360.633L3477.84 333.25L3497.76 348.808L3549.44 338.851L3584.31 320.181L3603.61 304L3622.73 328.885L3627.78 349.611L3682.7 382.099L3706.79 414.588L3753.31 448.197L3775.73 431.953L3797.22 435.39L3824.66 454.211L3851.56 462.277L3962.39 551.006L4028.48 570.13L4117.25 510.979L4175.14 483.975L4209.3 631.7L3961.95 747.715L2468.74 849.428L2044 553.134L2077.21 475.519Z" fill="#D7D7D7"/>
<path d="M1585.8 329.256V701.5H1323V424.868H1344.48V436.191H1348.27V421.094H1367.22V300.008H1380.38L1384.07 296.339H1406.93L1413.13 299.902H1424.92V461.771H1441.13V197.371L1466.61 172H1478.62V188.564L1502.41 212.258V421.514H1520.81V332.897L1525.52 328.209L1523.26 319.821L1550.85 292.354H1564.53V308.079L1585.8 329.256Z" fill="#A8A8A8"/>
<path d="M46.9999 339.184V611.443L395.939 628V387.023V369.175L380.808 354.109V310.329L371.463 294.211H359.848V261H305.648V339.876H292.247V489.102H245.492H219.881L186.229 486.981H163.239V540.053H148.92V464.15H127.441V475.473H123.65V460.376H104.698V339.29H91.5363L87.8522 335.621H64.9893L58.7922 339.184H46.9999Z" fill="#A8A8A8"/>
<path d="M903.063 535.23H897.107L897 611.387H1002.53V460.506V333H950.711V385.781L928.674 381.63V485.414H903.063V535.23Z" fill="#A8A8A8"/>
<path d="M845 413.732V702H932V499.54H928.757V495.054H922.305V499.749H918.074V488.899H910.107V483.526C910.107 483.526 915.721 481.339 914.405 479.854C913.339 478.652 904.484 481.98 904.718 483.695C904.916 485.141 907.709 484.079 907.709 484.079V489.004H895.99V402.602H888.722V395L855.785 400.867L845 413.732Z" fill="#424242"/>
<path d="M226.582 598.766L222 597.544V674.624H385V634.286V518.336H359.799V435.51H353.31L354.208 438.848L332.045 451.59L330.501 457.327L321.288 459.785V465.902L309.62 469.015V632.218L303.317 630.536V400.3L282.595 405.829V394L248.4 400.119V557.283L229.804 552.321L226.582 555.53V598.766Z" fill="#424242"/>
<path d="M3180.97 691.515H3200.45C3214.75 676.189 3256.48 647.347 3308.25 647.491C3359.92 647.448 3401.18 677.766 3415.46 693.073H3415.85H3434.94H3435.33C3449.74 677.622 3491.65 646.877 3544 647.5V644.427V636.594V634.3H3072.3V635.036V644.427V645.942C3124.65 645.319 3166.56 676.064 3180.97 691.515Z" fill="white"/>
<path d="M3072.3 635.036V645.942C3124.65 645.319 3166.56 676.064 3180.97 691.515H3200.45C3214.86 676.064 3257.16 646.877 3309.51 647.5M3415.85 693.073H3435.33C3449.74 677.622 3491.65 646.877 3544 647.5V636.594M3434.94 693.073H3415.46C3401.05 677.622 3359.14 646.877 3306.79 647.5M3544 644.427V634.3H3072.3V644.427" stroke="#D7D7D7" stroke-width="10.5362"/>
<path d="M3072.3 645.942C3124.65 645.319 3166.56 676.065 3180.97 691.515L3183.55 701.05L3192.45 696.6H3200.45V642.437C3196.55 629.583 3182.14 633.478 3180.97 643.605C3156.98 637.061 3098.53 635.166 3072.3 635.036L3023.35 635.036V645.942L3072.3 645.942Z" fill="#242424"/>
<path d="M3162.67 666.252C3168.27 669.368 3175.39 676.379 3178.25 679.495H3180.97V654.566C3172.87 643.349 3165.39 649.892 3162.67 654.566V666.252Z" fill="#D7D7D7"/>
<path d="M3157.21 661.188V650.671C3149.42 641.323 3141.76 646.776 3138.91 650.671V652.996C3145.76 655.178 3151.63 659.5 3153.71 661.188H3157.21Z" fill="#D7D7D7"/>
<path d="M3133.45 650.671V646.776C3128.47 640.544 3121.64 643.908 3119.04 645.985C3123.71 647.232 3130.73 649.243 3133.45 650.671Z" fill="#D7D7D7"/>
<path d="M3544 647.5C3491.65 646.877 3449.74 677.622 3435.33 693.073V697.218L3415.85 696.6V643.994C3419.74 631.141 3434.16 635.036 3435.33 645.163C3459.32 638.619 3517.77 636.724 3544 636.594V647.5Z" fill="#242424"/>
<path d="M3453.63 667.81C3448.02 670.926 3440.91 677.938 3438.05 681.054H3435.33V656.125C3443.43 644.907 3450.91 651.451 3453.63 656.125V667.81Z" fill="#D7D7D7"/>
<path d="M3459.09 662.747V652.23C3466.88 642.881 3474.54 648.335 3477.39 652.23V654.555C3470.54 656.736 3464.67 661.059 3462.59 662.747H3459.09Z" fill="#D7D7D7"/>
<path d="M3482.85 652.23V648.335C3487.83 642.102 3494.66 645.466 3497.26 647.544C3492.58 648.79 3485.57 650.801 3482.85 652.23Z" fill="#D7D7D7"/>
<path d="M3201.35 692.15L3181.36 698.231V643.994C3185.26 631.141 3199.67 635.036 3200.84 645.163C3224.83 638.619 3283.29 636.724 3309.51 636.594V647.5C3257.16 646.877 3215.76 676.699 3201.35 692.15Z" fill="#242424"/>
<path d="M3219.15 667.809C3213.54 670.926 3206.42 677.937 3203.57 681.053H3200.84V656.124C3208.94 644.906 3216.42 651.45 3219.15 656.124V667.809Z" fill="#D7D7D7"/>
<path d="M3224.6 662.746V652.229C3232.39 642.881 3240.05 648.334 3242.91 652.229V654.554C3236.05 656.735 3230.18 661.058 3228.11 662.746H3224.6Z" fill="#D7D7D7"/>
<path d="M3248.36 652.229V648.334C3253.35 642.102 3260.18 645.465 3262.77 647.543C3258.1 648.789 3251.09 650.801 3248.36 652.229Z" fill="#D7D7D7"/>
<path d="M3415.46 693.073L3434.94 696.6V643.994C3431.04 631.141 3416.63 635.036 3415.46 645.163C3391.47 638.619 3333.01 636.724 3306.79 636.594V647.5C3359.14 646.877 3401.05 677.622 3415.46 693.073Z" fill="#242424"/>
<path d="M3397.15 667.809C3402.76 670.926 3409.88 677.937 3412.73 681.053H3415.46V656.124C3407.36 644.906 3399.88 651.45 3397.15 656.124V667.809Z" fill="#D7D7D7"/>
<path d="M3391.7 662.746V652.229C3383.91 642.881 3376.25 648.334 3373.39 652.229V654.554C3380.25 656.735 3386.12 661.058 3388.19 662.746H3391.7Z" fill="#D7D7D7"/>
<path d="M3367.94 652.229V648.334C3362.95 642.102 3356.12 645.465 3353.53 647.543C3358.2 648.789 3365.21 650.801 3367.94 652.229Z" fill="#D7D7D7"/>
<path d="M3005.55 634.3L3544 634.3V644.427L3482.85 642.09L3428.31 648.323L3238.23 639.753L3192.66 647.543L3149.81 639.753H3104.36L3072.3 643.2H3005.55V634.3Z" fill="#242424"/>
<path d="M1380 668.309V395.424H1382.54V360.901H1386.73V336.786H1392.31V305.689L1404.83 284H1423.92L1437.28 307.14V337.166H1441.81V360.774H1446V666.913L1380 668.309Z" fill="#424242" stroke="#424242" stroke-width="1.97003"/>
<path d="M2310.62 435.018V725.098H2223.76V521.365H2227V516.851H2233.44V521.575H2237.67V510.657H2245.62V505.251C2245.62 505.251 2240.02 503.049 2241.33 501.556C2242.39 500.346 2251.23 503.695 2251 505.42C2250.8 506.875 2248.01 505.807 2248.01 505.807V510.762H2259.71V423.817H2266.97V416.168L2299.85 422.072L2310.62 435.018Z" fill="#242424"/>
<path d="M2652.12 566.191C2650.87 592.811 2653.05 647.509 2626.98 699.369C2622.73 699.373 2618.75 699.372 2614.53 699.377L2614.51 699.419C2568.78 699.42 2517.59 699.436 2462.62 699.436C2407.64 699.436 2356.46 699.419 2310.72 699.419L2310.71 699.377C2306.48 699.373 2302.5 699.374 2298.25 699.369C2272.18 647.509 2274.36 592.811 2273.11 566.191C2333.33 588.122 2395.71 604.126 2462.61 605.094C2529.52 604.126 2591.9 588.122 2652.12 566.191H2652.12Z" fill="#424242"/>
<path d="M2223.76 702.397V383.018L2200.81 353H2178.46V382.416L2150.73 418.686V702.397H2223.76Z" fill="#242424"/>
<path d="M2174.41 705.358V596.121H2168.5V593.222H2163.16V596.135H2157.3V592.185L2140.14 592.424V587.602H2134.39V592.424H2120.77V501.811H2115.2V498.51H2106.8V501.561H2098.45V423.077H2092.95L2063.76 430.187C2063.82 429.35 2063.84 428.446 2063.87 428.096C2062.56 428.194 2062.59 428.187 2059.3 428.505C2059.25 429.88 2059.24 429.898 2059.19 431.298L2054 432.563V705.358H2174.41Z" fill="#242424"/>
<path d="M2017.1 389.409H1969.02V391.983H2017.1V389.409Z" fill="#424242"/>
<path d="M1894 696.215V520.34H1897.4V522.96H1906.23V507.192H1913.58V512.847H1945.35V415.715H1950.13V395.558H1955.76V385.743H1958.36V377.239H1960.29V369.287H1963.92V377.285H1965.99V385.835H1968.42V395.673H2014.62V385.376H2017.1V377.607H2019.59V369.425H2023.22V377.653H2025.61V385.605H2027.49V395.719H2034.2V415.761H2038.76V696.583L1894 696.215Z" fill="#424242" stroke="#242424" stroke-width="2.01808"/>
<path d="M1963.08 359.13H1961V373.953H1963.08V359.13Z" fill="#424242"/>
<path d="M2022.63 359H2020.55V373.822H2022.63V359Z" fill="#424242"/>
<path d="M1586 589.799L1933.1 558.649H1977.6V634.299H2160.05L2217.9 714.399H1586V589.799Z" fill="#242424"/>
<path d="M2280.36 670.183L2503.68 633.819L2721.79 658.715L2840.9 598.7L3010 629.85L3072.3 674.35L3121.25 696.6H2244.6L2280.36 670.183Z" fill="#242424"/>
<path d="M3392.7 540.85C3392.7 597.376 3346.88 643.2 3290.35 643.2C3233.82 643.2 3188 597.376 3188 540.85C3188 484.324 3233.82 438.5 3290.35 438.5C3346.88 438.5 3392.7 484.324 3392.7 540.85ZM3194.96 540.85C3194.96 593.533 3237.67 636.24 3290.35 636.24C3343.03 636.24 3385.74 593.533 3385.74 540.85C3385.74 488.167 3343.03 445.46 3290.35 445.46C3237.67 445.46 3194.96 488.167 3194.96 540.85Z" fill="#242424"/>
<path d="M3249.4 423.48L3229.73 421.211C3227.24 420.923 3224.95 422.614 3224.49 425.08L3224.08 427.282C3223.78 428.908 3224.32 430.612 3225.68 431.555C3233.33 436.859 3242.79 435.641 3247.95 433.892C3248.96 433.549 3250.05 433.456 3251.09 433.705C3257.78 435.312 3268.41 437.052 3274.7 437.052C3278.97 437.052 3286.17 440.957 3291.22 444.176C3292.74 445.148 3294.8 444.076 3294.8 442.27C3294.8 441.974 3294.75 441.679 3294.6 441.424C3293.25 439.13 3287.8 434.846 3274.7 433.305C3263.14 431.945 3255.8 429.862 3252.42 428.546C3251.48 428.18 3251.03 427.165 3251.27 426.186C3251.59 424.904 3250.71 423.632 3249.4 423.48Z" fill="#424242"/>
<path d="M3340.2 423.48L3359.87 421.211C3362.36 420.923 3364.65 422.614 3365.11 425.08L3365.52 427.282C3365.82 428.908 3365.28 430.612 3363.92 431.555C3356.27 436.859 3346.81 435.641 3341.65 433.892C3340.64 433.549 3339.55 433.456 3338.52 433.705C3331.82 435.312 3321.19 437.052 3314.9 437.052C3310.63 437.052 3303.43 440.957 3298.38 444.176C3296.86 445.148 3294.8 444.076 3294.8 442.27C3294.8 441.974 3294.85 441.679 3295 441.424C3296.35 439.13 3301.8 434.846 3314.9 433.305C3326.46 431.945 3333.8 429.862 3337.18 428.546C3338.12 428.18 3338.57 427.165 3338.33 426.186C3338.01 424.904 3338.89 423.632 3340.2 423.48Z" fill="#424242"/>
<path d="M2855.49 498.877L2921.84 652.784H2918.16L2848.11 496.112L2849.04 658.949H2843.51V498.877L2838.9 499.799L2757.72 656.549L2754.03 655.628L2834.29 497.956L2831.53 494.269L2835.21 484.132L2828.76 481.367V479.524L2689.6 443.581L2690.52 441.738L2828.76 474.916H2834.29L2837.98 473.072L2774.39 306.263L2776.23 303.499L2840.74 465.7L2814.02 270.321L2815.86 269.399L2849.04 474.916L2995.57 375.383L2996.49 376.305L2857.33 474.916L2855.49 482.288L2975.3 488.74L2989.12 461.092L2990.96 462.013L2977.14 489.661L3001.1 497.034L3000.18 499.799L2977.14 491.504L2987.28 513.623L2985.43 514.544L2974.37 491.504L2856.41 485.053L2851.8 488.74L2855.49 498.877Z" fill="#242424" stroke="#242424" stroke-width="0.18432"/>
<path d="M914.082 627.843H908.126L908.019 704H1918L1917.44 479.58V461.732L1902.31 446.666V402.886L1892.96 386.768H1881.35V353.557H1827.15V432.433H1813.74V581.659H1766.99H1741.38L1707.73 579.538H1684.74V632.61H1670.42V556.707H1648.94V568.03H1645.15V552.933H1626.2V431.847H1613.03L1609.35 428.178H1586.49L1580.29 431.741H1568.5V593.61H1552.28V329.209L1526.8 303.839H1514.8V320.403L1491 344.096V553.352H1472.61V464.735L1467.9 460.048L1470.16 451.66L1442.57 424.192H1428.88V439.918L1407.62 461.095V605.352H1386.98V436.773H1350.34V316.352H1340.9L1342.21 321.205L1309.99 339.73L1307.74 348.071L1294.35 351.645V360.538L1277.38 365.064V602.346L1268.22 599.9V265.16L1238.09 273.198V256L1188.37 264.896V493.397L1161.34 486.184L1156.65 490.848V553.71L1149.99 551.933V382.508L1152.92 381.727V366.901H1093.36V378.762H1095.74V433.322H1082.64V426.206L1054.05 422.647V439.846H1048.61V451.402L1043.09 449.928V441.207L1020.7 454.079V553.119H1013.55V425.613H961.73V478.394L939.693 474.243V578.027H914.082V627.843Z" fill="#242424"/>
<path d="M526 688.649L620.5 654L840.5 677L937.5 638L1212 668.411V712H526V688.649Z" fill="#242424"/>
<path d="M231 444.098V738H143V531.583H146.28V527.01H152.806V531.796H157.086V520.734H165.145V515.257C165.145 515.257 159.466 513.026 160.797 511.513C161.875 510.287 170.833 513.68 170.596 515.428C170.396 516.903 167.57 515.82 167.57 515.82V520.841H179.424V432.75H186.775V425L220.091 430.982L231 444.098Z" fill="#242424"/>
<path d="M576.999 577C575.735 603.97 577.943 659.389 551.529 711.932C547.223 711.936 543.189 711.935 538.91 711.94L538.898 711.983C492.557 711.984 440.702 712 384.999 712C329.295 712 277.44 711.983 231.099 711.983L231.089 711.94C226.81 711.936 222.774 711.937 218.468 711.932C192.053 659.389 194.264 603.97 193 577C254.013 599.219 317.209 615.434 384.997 616.415C452.786 615.435 515.986 599.219 577 577H576.999Z" fill="#242424"/>
<path d="M143 715V391.413L119.747 361H97.0956V390.803L69 427.551V715H143Z" fill="#242424"/>
<path d="M87.0111 607.324H93V704H0V440L10.4635 432H16.0318V511.518H24.4975V508.427H33.0078V511.771H38.6452V603.578H52.4523V598.693H58.2731V603.578L75.6617 603.336V607.338H81.6003V604.386H87.0111V607.324Z" fill="#242424"/>
<path d="M1722.69 248.148H1711.99V325.276H1722.69V248.148Z" fill="#242424"/>
<path d="M1743.93 337.463L1755.73 674.754H1682.58L1690 336.935C1723.86 336.349 1723.65 335.723 1743.93 337.463Z" fill="#242424"/>
<path d="M1672.52 325.271C1677.92 328.494 1681.79 333.101 1682.13 340.919L1717 340.899L1751.87 340.919C1752.21 333.101 1756.08 328.494 1761.48 325.271H1717H1672.52Z" fill="#242424"/>
<path d="M1642.58 248.145L1656.41 318.718C1657.45 322.521 1659.67 325.29 1662.58 325.29H1717H1771.42C1774.33 325.29 1776.55 322.521 1777.59 318.718L1791.42 248.145H1717H1642.58Z" fill="#242424"/>
<path d="M1649.02 280.975L1645.27 261.891H1788.73L1784.99 280.975H1649.02Z" fill="#242424"/>
<path d="M1717 97L1711.68 183.748L1703.95 185.816C1702.73 186.145 1702.24 188.512 1704.67 188.512H1709C1709.3 189.303 1709.4 190.148 1711.07 190.574V198.125H1694.36C1691.24 198.045 1688.81 198.614 1689.92 202.561L1691.95 210.124C1660.42 212.494 1651.07 224.963 1643.51 238.247C1639.01 237.946 1634.5 238.452 1630 239.52L1633.43 248.145H1717H1800.57L1804 239.52C1799.5 238.452 1794.99 237.946 1790.49 238.247C1782.93 224.963 1773.59 212.494 1742.05 210.124L1744.08 202.561C1745.19 198.614 1742.76 198.045 1739.64 198.125H1722.93V190.574C1724.6 190.148 1724.7 189.303 1725 188.512H1729.33C1731.76 188.512 1731.27 186.145 1730.05 185.816L1722.32 183.748L1717 97Z" fill="#242424"/>
<mask id="mask0_704_2629" style="mask-type:alpha" maskUnits="userSpaceOnUse" x="599" y="389" width="143" height="284">
<path d="M735.478 612.274C735.478 645.328 706.038 672.124 669.723 672.124C633.407 672.124 603.968 645.328 603.968 612.274C578.374 554.766 658.213 389 694.529 389C730.844 389 753.984 547.682 735.478 612.274Z" fill="#FF0000"/>
</mask>
<g mask="url(#mask0_704_2629)">
<path d="M665.709 555.501L670.56 565.094" stroke="#242424" stroke-width="1.82876"/>
<path d="M724.831 531.794C712.969 535.527 696.547 536.739 663.23 562.443C683.705 552.211 699.798 540.822 724.831 531.794Z" fill="#242424"/>
<path d="M670.664 552.955L674.923 561.822" stroke="#242424" stroke-width="1.82876"/>
<path d="M673.026 545.744L679.066 557.518" stroke="#242424" stroke-width="1.82876"/>
<path d="M677.154 542.843L682.694 553.955" stroke="#242424" stroke-width="1.82876"/>
<path d="M686.532 550.665L680.677 538.115" stroke="#242424" stroke-width="1.82876"/>
<path d="M684.25 532.664L690.074 546.969" stroke="#242424" stroke-width="1.82876"/>
<path d="M687.921 527.656L694.556 544.043" stroke="#242424" stroke-width="1.82876"/>
<path d="M698.946 541.407L691.732 521.806" stroke="#242424" stroke-width="1.82876"/>
<path d="M696.63 515.838L703.271 538.606" stroke="#242424" stroke-width="1.82876"/>
<path d="M701.745 511.812L707.302 535.517" stroke="#242424" stroke-width="1.82876"/>
<path d="M707.459 509.376L711.277 532.824" stroke="#242424" stroke-width="1.82876"/>
<path d="M713.423 507.461L715.74 529.671" stroke="#242424" stroke-width="1.82876"/>
<path d="M719.683 504.983L720.034 527.07" stroke="#242424" stroke-width="1.82876"/>
<path d="M648.195 539.643L663.051 560.247" stroke="#242424" stroke-width="1.82876"/>
<path d="M726.241 503.781L724.299 524.316" stroke="#242424" stroke-width="1.82876"/>
<path d="M730.612 521.535L729.055 523.839C642.481 577.217 653.589 596.808 659.025 614.402C648.516 598.826 651.226 586.918 661.009 573.708C676.485 552.81 710.901 530.875 730.612 521.535Z" fill="#242424"/>
<path d="M652.816 536.56L666.147 555.501" stroke="#242424" stroke-width="1.82876"/>
<path d="M675.308 647.6C673.421 648.66 691.623 662.796 686.431 688.734L679.168 689.46C676.664 660.029 683.224 681.675 671.95 643.404L675.308 647.6Z" fill="#242424"/>
<path d="M613.124 512.899L610.134 514.732C610.137 514.798 663.451 591.867 671.668 607.345C675.549 613.398 677.301 617.95 677.185 624.054C677.054 630.882 673.593 643.966 674.195 644.202L662.836 687.499L672.575 689.237L683.663 645.703C686.411 635.963 689.978 619.013 679.14 604.051L613.124 512.899Z" fill="#242424"/>
<path d="M657.355 533.193L668.987 550.216" stroke="#242424" stroke-width="1.82876"/>
<path d="M627.374 510.448L648.96 539.643" stroke="#242424" stroke-width="2.09"/>
<path d="M663.092 530.313L673.443 545.744" stroke="#242424" stroke-width="1.82876"/>
<path d="M631.81 506.458L653.57 536.56" stroke="#242424" stroke-width="2.09"/>
<path d="M667.773 527.463L677.164 540.758" stroke="#242424" stroke-width="1.82876"/>
<path d="M636.326 502.363L658.091 533.193" stroke="#242424" stroke-width="2.09"/>
<path d="M673.748 525.241L681.476 536.382" stroke="#242424" stroke-width="1.82876"/>
<path d="M642.981 500.159L663.794 530.313" stroke="#242424" stroke-width="2.09"/>
<path d="M679.049 521.659L683.819 529.9" stroke="#242424" stroke-width="1.82876"/>
<path d="M648.351 497.212L668.444 527.464" stroke="#242424" stroke-width="2.09"/>
<path d="M684.37 519.299L688.662 523.802" stroke="#242424" stroke-width="1.82876"/>
<path d="M653.706 494.993L674.386 525.241" stroke="#242424" stroke-width="2.09"/>
<path d="M660.164 492.626L679.623 521.658" stroke="#242424" stroke-width="2.09"/>
<path d="M666.916 491.175L684.871 519.299" stroke="#242424" stroke-width="2.09"/>
<path d="M672.681 489.176L690.153 516.929" stroke="#242424" stroke-width="2.09"/>
<path d="M679.321 486.994L696.031 514.427" stroke="#242424" stroke-width="2.09"/>
<path d="M718.582 489.637L726.218 503.248" stroke="#242424" stroke-width="2.09001"/>
<path d="M712.942 493.391L720.101 504.984" stroke="#242424" stroke-width="2.09"/>
<path d="M709.16 498.319L713.475 506.833" stroke="#242424" stroke-width="2.09"/>
<path d="M647.42 540.334C672.55 523.69 704.433 508.923 734.174 504.2L734.481 502.419C719.215 504.767 687.774 511.433 645.793 537.627L647.42 540.334Z" fill="#242424"/>
<path d="M685.691 485.674L700.067 509.783" stroke="#242424" stroke-width="2.09"/>
<path d="M691.443 483.994L704.555 505.016" stroke="#242424" stroke-width="2.09"/>
<path d="M698.614 482.702L708.239 499.42" stroke="#242424" stroke-width="2.09"/>
<path d="M705.238 481.106L713.31 493.391" stroke="#242424" stroke-width="2.09"/>
<path d="M711.201 480.277L717.444 489.363" stroke="#242424" stroke-width="2.09"/>
<path d="M721.717 483.72C689.901 512.969 656.382 558.777 646.435 581.912C637.169 603.466 658.371 629.78 667.115 646.951C678.126 668.57 672.078 688.945 672.078 688.945L681.964 689.469C681.964 689.469 689.471 667.196 657.227 613.265C653.584 606.472 648.68 593.767 652.012 585.938C669.893 543.923 725.874 483.857 724.12 485.137C724.463 486.172 723.139 484.035 721.717 483.72Z" fill="#242424"/>
<path d="M615.628 511.236C666.613 483.932 697.749 482.269 716.209 481.118C683.957 487.806 647.914 495.172 617.357 516.182L615.628 511.236Z" fill="#242424"/>
<path d="M715.423 479.371C718.307 478.697 732.142 491.144 734.165 500.197C736.627 511.214 724.022 531.549 724.022 531.549L725.395 530.567C725.394 530.567 739.946 511.476 735.368 497.214C729.384 484.978 717.219 479.315 715.423 479.371Z" fill="#242424"/>
</g>
<mask id="mask1_704_2629" style="mask-type:alpha" maskUnits="userSpaceOnUse" x="720" y="437" width="120" height="238">
<path d="M834.527 624.363C834.527 652.101 809.822 674.587 779.348 674.587C748.873 674.587 724.169 652.101 724.169 624.363C702.692 576.105 769.689 437 800.164 437C830.638 437 850.056 570.159 834.527 624.363Z" fill="#FF0000"/>
</mask>
<g mask="url(#mask1_704_2629)">
<path d="M775.979 576.721L780.051 584.771" stroke="#242424" stroke-width="1.82876"/>
<path d="M825.592 556.827C815.638 559.96 801.858 560.977 773.899 582.547C791.081 573.961 804.586 564.403 825.592 556.827Z" fill="#242424"/>
<path d="M780.138 574.584L783.711 582.026" stroke="#242424" stroke-width="1.82876"/>
<path d="M782.119 568.533L787.188 578.413" stroke="#242424" stroke-width="1.82876"/>
<path d="M785.584 566.099L790.233 575.424" stroke="#242424" stroke-width="1.82876"/>
<path d="M793.453 572.663L788.541 562.132" stroke="#242424" stroke-width="1.82876"/>
<path d="M791.538 557.557L796.426 569.561" stroke="#242424" stroke-width="1.82876"/>
<path d="M794.619 553.355L800.187 567.106" stroke="#242424" stroke-width="1.82876"/>
<path d="M803.871 564.894L797.817 548.446" stroke="#242424" stroke-width="1.82876"/>
<path d="M801.927 543.438L807.5 562.543" stroke="#242424" stroke-width="1.82876"/>
<path d="M806.22 540.06L810.882 559.951" stroke="#242424" stroke-width="1.82876"/>
<path d="M811.015 538.014L814.218 557.691" stroke="#242424" stroke-width="1.82876"/>
<path d="M816.019 536.408L817.964 555.045" stroke="#242424" stroke-width="1.82876"/>
<path d="M821.272 534.329L821.567 552.863" stroke="#242424" stroke-width="1.82876"/>
<path d="M761.283 563.414L773.749 580.704" stroke="#242424" stroke-width="1.82876"/>
<path d="M826.776 533.32L825.146 550.552" stroke="#242424" stroke-width="1.82876"/>
<path d="M830.443 548.218L829.137 550.151C756.487 594.944 765.809 611.384 770.37 626.149C761.552 613.078 763.826 603.085 772.035 592C785.022 574.463 813.903 556.056 830.443 548.218Z" fill="#242424"/>
<path d="M765.16 560.826L776.347 576.721" stroke="#242424" stroke-width="1.82876"/>
<path d="M784.034 654.007C782.451 654.897 797.725 666.759 793.368 688.525L787.274 689.134C785.172 664.437 790.678 682.601 781.217 650.486L784.034 654.007Z" fill="#242424"/>
<path d="M731.853 540.971L729.343 542.509C729.346 542.565 774.085 607.238 780.98 620.227C784.237 625.306 785.707 629.126 785.61 634.248C785.5 639.978 782.596 650.957 783.101 651.155L773.569 687.489L781.742 688.947L791.046 652.415C793.352 644.241 796.345 630.018 787.251 617.462L731.853 540.971Z" fill="#242424"/>
<path d="M768.969 558.001L778.73 572.286" stroke="#242424" stroke-width="1.82876"/>
<path d="M743.81 538.914L761.925 563.414" stroke="#242424" stroke-width="2.09"/>
<path d="M773.783 555.585L782.47 568.533" stroke="#242424" stroke-width="1.82876"/>
<path d="M747.532 535.567L765.793 560.826" stroke="#242424" stroke-width="2.09"/>
<path d="M777.712 553.193L785.592 564.35" stroke="#242424" stroke-width="1.82876"/>
<path d="M751.323 532.129L769.587 558.001" stroke="#242424" stroke-width="2.09"/>
<path d="M782.726 551.329L789.211 560.677" stroke="#242424" stroke-width="1.82876"/>
<path d="M756.907 530.281L774.372 555.585" stroke="#242424" stroke-width="2.09"/>
<path d="M787.174 548.322L791.177 555.237" stroke="#242424" stroke-width="1.82876"/>
<path d="M761.414 527.807L778.274 553.193" stroke="#242424" stroke-width="2.09"/>
<path d="M791.639 546.342L795.241 550.121" stroke="#242424" stroke-width="1.82876"/>
<path d="M765.907 525.945L783.261 551.328" stroke="#242424" stroke-width="2.09"/>
<path d="M771.326 523.959L787.656 548.322" stroke="#242424" stroke-width="2.09"/>
<path d="M776.992 522.741L792.06 546.342" stroke="#242424" stroke-width="2.09"/>
<path d="M781.831 521.064L796.492 544.353" stroke="#242424" stroke-width="2.09"/>
<path d="M787.402 519.233L801.425 542.253" stroke="#242424" stroke-width="2.09"/>
<path d="M820.349 521.451L826.756 532.873" stroke="#242424" stroke-width="2.09001"/>
<path d="M815.616 524.601L821.623 534.329" stroke="#242424" stroke-width="2.09"/>
<path d="M812.442 528.737L816.063 535.881" stroke="#242424" stroke-width="2.09"/>
<path d="M760.632 563.994C781.72 550.026 808.475 537.635 833.432 533.671L833.69 532.177C820.88 534.147 794.496 539.741 759.267 561.722L760.632 563.994Z" fill="#242424"/>
<path d="M792.748 518.125L804.811 538.356" stroke="#242424" stroke-width="2.09"/>
<path d="M797.574 516.715L808.577 534.356" stroke="#242424" stroke-width="2.09"/>
<path d="M803.592 515.631L811.669 529.66" stroke="#242424" stroke-width="2.09"/>
<path d="M809.151 514.292L815.924 524.601" stroke="#242424" stroke-width="2.09"/>
<path d="M814.155 513.596L819.393 521.221" stroke="#242424" stroke-width="2.09"/>
<path d="M822.98 516.486C796.281 541.03 768.152 579.47 759.806 598.884C752.03 616.972 769.821 639.054 777.16 653.462C786.399 671.605 781.324 688.702 781.324 688.702L789.62 689.142C789.62 689.142 795.919 670.451 768.862 625.194C765.804 619.494 761.689 608.833 764.485 602.263C779.49 567.006 826.467 516.6 824.996 517.674C825.283 518.543 824.173 516.749 822.98 516.486Z" fill="#242424"/>
<path d="M733.953 539.576C776.738 516.663 802.867 515.268 818.357 514.302C791.293 519.914 761.047 526.096 735.405 543.726L733.953 539.576Z" fill="#242424"/>
<path d="M817.697 512.836C820.118 512.27 831.727 522.715 833.425 530.313C835.491 539.557 824.914 556.621 824.914 556.621L826.065 555.797C826.065 555.798 838.276 539.777 834.435 527.809C829.413 517.541 819.204 512.789 817.697 512.836Z" fill="#242424"/>
</g>
</g>
<defs>
<clipPath id="clip0_704_2629">
<rect width="4043" height="680" fill="white"/>
</clipPath>
</defs>
</svg>
