<svg width="1918" height="607" viewBox="0 0 1918 607" fill="none" xmlns="http://www.w3.org/2000/svg">
<path d="M908 620.387L908.126 530.843H914.082V481.027H939.693V377.243L961.73 381.394V328.613H1013.55V456.119H1020.7V357.079L1043.09 344.207V352.928L1048.61 354.402V342.846H1054.05V325.647L1082.64 329.206V336.322H1095.74V281.762H1093.36V269.901H1152.92V284.727L1149.99 285.508V454.933L1156.65 456.71V393.848L1161.34 389.184L1188.37 396.397V167.896L1238.09 159V176.198L1268.22 168.16V502.9L1277.38 505.346V268.064L1294.35 263.538V254.645L1307.74 251.071L1309.99 242.73L1342.21 224.205L1340.9 219.352H1350.34V339.773H1386.98V508.352H1407.62V364.095L1428.88 342.918V327.192H1442.57L1470.16 354.66L1467.9 363.048L1472.61 367.735V456.352H1491V247.096L1514.8 223.403V206.839H1526.8L1552.28 232.209V496.61H1568.5V334.741H1580.29L1586.49 331.178H1609.35L1613.03 334.847H1626.2V455.933H1645.15V471.03H1648.94V459.707H1670.42V535.61H1684.74V482.538H1707.73L1741.38 484.659H1766.99H1813.74V335.433H1827.15V256.557H1881.35V289.768H1892.96L1902.31 305.886V349.666L1917.44 364.732V382.58H1952.8L1966.21 395.932V477.469L1982.39 481.786V532.674H1992.18V271.087L1997.63 269.632L2016.88 236.436H2040.37L2057.41 265.818L2058.86 271.217H2071.05L2069.06 278.585H2072.53L2084.8 257.432H2108.57L2133.59 282.348L2131.49 290.142L2136.2 292.847V330.095L2143.23 331.97V357.969H2150.56L2151.78 531.881C2153 619.427 2153 579.432 2153 619.427C1901.42 619.427 1127.13 622.196 908 620.387Z" fill="#242424"/>
<path d="M526 591.649L620.5 557L840.5 580L937.5 541L1212 571.411V615H526V591.649Z" fill="#242424"/>
<path d="M231 347.098V641H143V434.583H146.28V430.01H152.806V434.796H157.086V423.734H165.145V418.257C165.145 418.257 159.466 416.026 160.797 414.513C161.875 413.287 170.833 416.68 170.596 418.428C170.396 419.903 167.57 418.82 167.57 418.82V423.841H179.424V335.75H186.775V328L220.091 333.982L231 347.098Z" fill="#242424"/>
<path d="M576.999 480C575.735 506.97 577.943 562.389 551.529 614.932C547.223 614.936 543.189 614.935 538.91 614.94L538.898 614.983C492.557 614.984 440.702 615 384.999 615C329.295 615 277.44 614.983 231.099 614.983L231.089 614.94C226.81 614.936 222.774 614.937 218.468 614.932C192.053 562.389 194.264 506.97 193 480C254.013 502.219 317.209 518.434 384.997 519.415C452.786 518.435 515.986 502.219 577 480H576.999Z" fill="#242424"/>
<path d="M143 618V294.413L119.747 264H97.0956V293.803L69 330.551V618H143Z" fill="#242424"/>
<path d="M93 621V510.324H87.0111V507.386H81.6003V510.338H75.6617V506.336L58.2731 506.578V501.693H52.4523V506.578H38.6452V414.771H33.0078V411.427H24.4975V414.518H16.0318V335H10.4635L-19.1139 342.203C-19.0459 341.356 -19.0283 340.44 -18.9985 340.085C-20.3275 340.184 -20.2975 340.178 -23.6256 340.5C-23.6802 341.893 -23.6863 341.911 -23.7398 343.33L-29 344.611V621H93Z" fill="#242424"/>
<mask id="mask0_231:253" style="mask-type:alpha" maskUnits="userSpaceOnUse" x="577" y="118" width="228" height="452">
<path d="M794.601 473.989C794.601 526.691 747.663 569.415 689.761 569.415C631.859 569.415 584.92 526.691 584.92 473.989C544.114 382.299 671.41 118 729.311 118C787.213 118 824.107 371.003 794.601 473.989Z" fill="#FF0000"/>
</mask>
<g mask="url(#mask0_231:253)">
<path d="M683.361 383.47L691.096 398.766" stroke="#242424" stroke-width="1.82876"/>
<path d="M777.624 345.673C758.712 351.625 732.529 353.557 679.409 394.54C712.053 378.226 737.713 360.067 777.624 345.673Z" fill="#242424"/>
<path d="M691.262 379.411L698.052 393.549" stroke="#242424" stroke-width="1.82876"/>
<path d="M695.027 367.913L704.657 386.686" stroke="#242424" stroke-width="1.82876"/>
<path d="M701.61 363.289L710.442 381.007" stroke="#242424" stroke-width="1.82876"/>
<path d="M716.561 375.76L707.227 355.751" stroke="#242424" stroke-width="1.82876"/>
<path d="M712.922 347.06L722.209 369.867" stroke="#242424" stroke-width="1.82876"/>
<path d="M718.777 339.075L729.355 365.202" stroke="#242424" stroke-width="1.82876"/>
<path d="M736.354 360.999L724.853 329.747" stroke="#242424" stroke-width="1.82876"/>
<path d="M732.662 320.232L743.25 356.533" stroke="#242424" stroke-width="1.82876"/>
<path d="M740.818 313.813L749.677 351.608" stroke="#242424" stroke-width="1.82876"/>
<path d="M749.929 309.928L756.016 347.314" stroke="#242424" stroke-width="1.82876"/>
<path d="M759.437 306.876L763.131 342.287" stroke="#242424" stroke-width="1.82876"/>
<path d="M769.417 302.925L769.977 338.14" stroke="#242424" stroke-width="1.82876"/>
<path d="M655.437 358.187L679.123 391.038" stroke="#242424" stroke-width="1.82876"/>
<path d="M779.875 301.008L776.777 333.749" stroke="#242424" stroke-width="1.82876"/>
<path d="M786.843 329.314L784.36 332.988C646.326 418.094 664.037 449.331 672.704 477.383C655.948 452.548 660.269 433.562 675.867 412.5C700.542 379.181 755.415 344.206 786.843 329.314Z" fill="#242424"/>
<path d="M662.804 353.271L684.059 383.47" stroke="#242424" stroke-width="1.82876"/>
<path d="M698.667 530.314C695.658 532.004 724.679 554.543 716.401 595.898L704.821 597.056C700.828 550.13 711.288 584.643 693.312 523.624L698.667 530.314Z" fill="#242424"/>
<path d="M599.521 315.545L594.752 318.468C594.757 318.574 679.762 441.453 692.863 466.132C699.051 475.782 701.845 483.04 701.659 492.772C701.451 503.659 695.933 524.519 696.892 524.895L678.781 593.93L694.31 596.7L711.988 527.289C716.369 511.759 722.056 484.735 704.777 460.879L599.521 315.545Z" fill="#242424"/>
<path d="M670.042 347.903L688.587 375.043" stroke="#242424" stroke-width="1.82876"/>
<path d="M622.24 311.638L656.657 358.187" stroke="#242424" stroke-width="2.09"/>
<path d="M679.189 343.312L695.693 367.913" stroke="#242424" stroke-width="1.82876"/>
<path d="M629.312 305.277L664.007 353.27" stroke="#242424" stroke-width="2.09"/>
<path d="M686.653 338.767L701.625 359.965" stroke="#242424" stroke-width="1.82876"/>
<path d="M636.513 298.747L671.215 347.903" stroke="#242424" stroke-width="2.09"/>
<path d="M696.18 335.225L708.501 352.987" stroke="#242424" stroke-width="1.82876"/>
<path d="M647.124 295.234L680.307 343.311" stroke="#242424" stroke-width="2.09"/>
<path d="M704.631 329.512L712.236 342.651" stroke="#242424" stroke-width="1.82876"/>
<path d="M655.686 290.534L687.721 338.768" stroke="#242424" stroke-width="2.09"/>
<path d="M713.115 325.75L719.958 332.93" stroke="#242424" stroke-width="1.82876"/>
<path d="M664.223 286.996L697.196 335.224" stroke="#242424" stroke-width="2.09"/>
<path d="M674.52 283.222L705.546 329.512" stroke="#242424" stroke-width="2.09"/>
<path d="M685.286 280.909L713.914 325.75" stroke="#242424" stroke-width="2.09"/>
<path d="M694.479 277.722L722.336 321.971" stroke="#242424" stroke-width="2.09"/>
<path d="M705.064 274.243L731.707 317.982" stroke="#242424" stroke-width="2.09"/>
<path d="M767.663 278.457L779.837 300.159" stroke="#242424" stroke-width="2.09001"/>
<path d="M758.671 284.443L770.085 302.925" stroke="#242424" stroke-width="2.09"/>
<path d="M752.64 292.3L759.519 305.875" stroke="#242424" stroke-width="2.09"/>
<path d="M654.201 359.288C694.269 332.751 745.103 309.207 792.522 301.676L793.011 298.837C768.671 302.58 718.542 313.209 651.608 354.972L654.201 359.288Z" fill="#242424"/>
<path d="M715.221 272.138L738.142 310.577" stroke="#242424" stroke-width="2.09"/>
<path d="M724.393 269.459L745.298 302.977" stroke="#242424" stroke-width="2.09"/>
<path d="M735.825 267.4L751.171 294.055" stroke="#242424" stroke-width="2.09"/>
<path d="M746.386 264.854L759.256 284.442" stroke="#242424" stroke-width="2.09"/>
<path d="M755.894 263.533L765.848 278.02" stroke="#242424" stroke-width="2.09"/>
<path d="M772.661 269.023C721.934 315.658 668.489 388.694 652.631 425.581C637.857 459.946 671.661 501.902 685.603 529.278C703.159 563.749 693.516 596.235 693.516 596.235L709.278 597.07C709.278 597.07 721.247 561.558 669.838 475.569C664.029 464.739 656.21 444.482 661.522 432C690.032 365.011 779.288 269.241 776.492 271.282C777.038 272.931 774.928 269.524 772.661 269.023Z" fill="#242424"/>
<path d="M603.511 312.894C684.802 269.36 734.446 266.709 763.879 264.873C712.456 275.538 654.989 287.282 606.268 320.78L603.511 312.894Z" fill="#242424"/>
<path d="M762.625 262.089C767.224 261.013 789.282 280.86 792.508 295.294C796.434 312.859 776.336 345.281 776.336 345.281L778.525 343.715C778.524 343.716 801.726 313.276 794.426 290.538C784.885 271.029 765.488 261.999 762.625 262.089Z" fill="#242424"/>
</g>
<mask id="mask1_231:253" style="mask-type:alpha" maskUnits="userSpaceOnUse" x="733" y="299" width="143" height="284">
<path d="M869.478 522.274C869.478 555.328 840.038 582.124 803.723 582.124C767.407 582.124 737.968 555.328 737.968 522.274C712.374 464.766 792.213 299 828.529 299C864.844 299 887.984 457.682 869.478 522.274Z" fill="#FF0000"/>
</mask>
<g mask="url(#mask1_231:253)">
<path d="M799.709 465.501L804.561 475.094" stroke="#242424" stroke-width="1.82876"/>
<path d="M858.831 441.794C846.969 445.527 830.547 446.739 797.23 472.443C817.705 462.211 833.798 450.822 858.831 441.794Z" fill="#242424"/>
<path d="M804.665 462.955L808.923 471.822" stroke="#242424" stroke-width="1.82876"/>
<path d="M807.026 455.744L813.066 467.518" stroke="#242424" stroke-width="1.82876"/>
<path d="M811.155 452.843L816.694 463.955" stroke="#242424" stroke-width="1.82876"/>
<path d="M820.532 460.665L814.678 448.115" stroke="#242424" stroke-width="1.82876"/>
<path d="M818.25 442.664L824.074 456.969" stroke="#242424" stroke-width="1.82876"/>
<path d="M821.921 437.656L828.556 454.043" stroke="#242424" stroke-width="1.82876"/>
<path d="M832.946 451.407L825.732 431.806" stroke="#242424" stroke-width="1.82876"/>
<path d="M830.631 425.838L837.272 448.606" stroke="#242424" stroke-width="1.82876"/>
<path d="M835.746 421.812L841.302 445.517" stroke="#242424" stroke-width="1.82876"/>
<path d="M841.459 419.376L845.277 442.824" stroke="#242424" stroke-width="1.82876"/>
<path d="M847.423 417.461L849.74 439.671" stroke="#242424" stroke-width="1.82876"/>
<path d="M853.683 414.983L854.034 437.07" stroke="#242424" stroke-width="1.82876"/>
<path d="M782.195 449.643L797.051 470.247" stroke="#242424" stroke-width="1.82876"/>
<path d="M860.242 413.781L858.299 434.316" stroke="#242424" stroke-width="1.82876"/>
<path d="M864.612 431.535L863.055 433.839C776.481 487.217 787.589 506.808 793.025 524.402C782.516 508.826 785.226 496.918 795.009 483.708C810.485 462.81 844.901 440.875 864.612 431.535Z" fill="#242424"/>
<path d="M786.816 446.56L800.147 465.501" stroke="#242424" stroke-width="1.82876"/>
<path d="M809.308 557.6C807.422 558.66 825.623 572.796 820.431 598.734L813.168 599.46C810.664 570.029 817.225 591.675 805.95 553.404L809.308 557.6Z" fill="#242424"/>
<path d="M747.125 422.899L744.134 424.732C744.137 424.798 797.452 501.867 805.669 517.345C809.55 523.398 811.302 527.95 811.185 534.054C811.055 540.882 807.594 553.966 808.196 554.202L796.837 597.499L806.576 599.237L817.663 555.703C820.411 545.963 823.978 529.013 813.141 514.051L747.125 422.899Z" fill="#242424"/>
<path d="M791.355 443.193L802.987 460.216" stroke="#242424" stroke-width="1.82876"/>
<path d="M761.374 420.448L782.96 449.643" stroke="#242424" stroke-width="2.09"/>
<path d="M797.092 440.313L807.444 455.744" stroke="#242424" stroke-width="1.82876"/>
<path d="M765.81 416.458L787.571 446.56" stroke="#242424" stroke-width="2.09"/>
<path d="M801.773 437.463L811.164 450.758" stroke="#242424" stroke-width="1.82876"/>
<path d="M770.326 412.363L792.091 443.193" stroke="#242424" stroke-width="2.09"/>
<path d="M807.749 435.241L815.476 446.382" stroke="#242424" stroke-width="1.82876"/>
<path d="M776.981 410.159L797.794 440.313" stroke="#242424" stroke-width="2.09"/>
<path d="M813.049 431.659L817.819 439.9" stroke="#242424" stroke-width="1.82876"/>
<path d="M782.352 407.212L802.444 437.464" stroke="#242424" stroke-width="2.09"/>
<path d="M818.371 429.299L822.663 433.802" stroke="#242424" stroke-width="1.82876"/>
<path d="M787.706 404.993L808.387 435.241" stroke="#242424" stroke-width="2.09"/>
<path d="M794.164 402.626L813.623 431.658" stroke="#242424" stroke-width="2.09"/>
<path d="M800.916 401.175L818.871 429.299" stroke="#242424" stroke-width="2.09"/>
<path d="M806.682 399.176L824.154 426.929" stroke="#242424" stroke-width="2.09"/>
<path d="M813.321 396.994L830.031 424.427" stroke="#242424" stroke-width="2.09"/>
<path d="M852.583 399.637L860.218 413.248" stroke="#242424" stroke-width="2.09001"/>
<path d="M846.942 403.391L854.101 414.984" stroke="#242424" stroke-width="2.09"/>
<path d="M843.161 408.319L847.475 416.833" stroke="#242424" stroke-width="2.09"/>
<path d="M781.42 450.334C806.55 433.69 838.433 418.923 868.174 414.2L868.481 412.419C853.215 414.767 821.775 421.433 779.794 447.627L781.42 450.334Z" fill="#242424"/>
<path d="M819.691 395.674L834.067 419.783" stroke="#242424" stroke-width="2.09"/>
<path d="M825.443 393.994L838.555 415.016" stroke="#242424" stroke-width="2.09"/>
<path d="M832.614 392.702L842.239 409.42" stroke="#242424" stroke-width="2.09"/>
<path d="M839.238 391.106L847.31 403.391" stroke="#242424" stroke-width="2.09"/>
<path d="M845.201 390.277L851.444 399.363" stroke="#242424" stroke-width="2.09"/>
<path d="M855.717 393.72C823.901 422.969 790.382 468.777 780.435 491.912C771.169 513.466 792.371 539.78 801.115 556.951C812.126 578.57 806.078 598.945 806.078 598.945L815.964 599.469C815.964 599.469 823.471 577.196 791.227 523.265C787.584 516.472 782.68 503.767 786.012 495.938C803.893 453.923 859.874 393.857 858.12 395.137C858.463 396.172 857.139 394.035 855.717 393.72Z" fill="#242424"/>
<path d="M749.628 421.236C800.613 393.932 831.75 392.269 850.209 391.118C817.957 397.806 781.914 405.172 751.357 426.182L749.628 421.236Z" fill="#242424"/>
<path d="M849.423 389.371C852.307 388.697 866.142 401.144 868.165 410.197C870.627 421.214 858.023 441.549 858.023 441.549L859.395 440.567C859.395 440.567 873.947 421.476 869.368 407.214C863.384 394.978 851.219 389.315 849.423 389.371Z" fill="#242424"/>
</g>
<path d="M1722.69 151.148H1711.99V228.276H1722.69V151.148Z" fill="#242424"/>
<path d="M1743.93 240.463L1755.73 577.754H1682.58L1690 239.935C1723.86 239.349 1723.65 238.723 1743.93 240.463Z" fill="#242424"/>
<path d="M1672.52 228.271C1677.92 231.494 1681.79 236.101 1682.13 243.919L1717 243.899L1751.87 243.919C1752.21 236.101 1756.08 231.494 1761.48 228.271H1717H1672.52Z" fill="#242424"/>
<path d="M1642.58 151.145L1656.41 221.718C1657.45 225.521 1659.67 228.29 1662.58 228.29H1717H1771.42C1774.33 228.29 1776.55 225.521 1777.59 221.718L1791.42 151.145H1717H1642.58Z" fill="#242424"/>
<path d="M1649.02 183.975L1645.27 164.891H1788.73L1784.99 183.975H1649.02Z" fill="#242424"/>
<path d="M1717 0L1711.68 86.7477L1703.95 88.8159C1702.73 89.1446 1702.24 91.5116 1704.67 91.5116H1709C1709.3 92.3034 1709.4 93.1481 1711.07 93.5744V101.125H1694.36C1691.24 101.045 1688.81 101.614 1689.92 105.561L1691.95 113.124C1660.42 115.494 1651.07 127.963 1643.51 141.247C1639.01 140.946 1634.5 141.452 1630 142.52L1633.43 151.145H1717H1800.57L1804 142.52C1799.5 141.452 1794.99 140.946 1790.49 141.247C1782.93 127.963 1773.59 115.494 1742.05 113.124L1744.08 105.561C1745.19 101.614 1742.76 101.045 1739.64 101.125H1722.93V93.5744C1724.6 93.1481 1724.7 92.3034 1725 91.5116H1729.33C1731.76 91.5116 1731.27 89.1446 1730.05 88.8159L1722.32 86.7477L1717 0Z" fill="#242424"/>
</svg>
