<svg width="2310" height="728" viewBox="0 0 2310 728" fill="none" xmlns="http://www.w3.org/2000/svg">
<path d="M177.213 171.519L232.325 131.212L261.898 150.022L306.256 117.776H338.517L403.039 81.4993L553.589 167.488L592.571 156.74L771.897 270.272L852.001 223.919L869.199 241.813L946.413 214.948L985.02 217.878L1007.01 184.174L1041.71 175.87L1096.93 181.243L1156.78 142.01L1202.42 92.8452L1228.39 86.5522L1248.85 52.7267L1280.63 72.9561L1289.7 99.6575L1362.2 150.199L1387.96 161.643L1427.08 154.491L1489.43 93.973L1503.75 85.8827L1521.18 105.798L1551.07 84.0157L1557.29 56.6328L1577.84 29.2499L1597.76 44.8083L1649.44 34.8509L1684.31 16.1808L1703.61 0L1722.73 24.8851L1727.78 45.6107L1782.7 78.0994L1806.79 110.588L1853.31 144.197L1875.73 127.953L1897.22 131.39L1924.66 150.211L1951.56 158.277L2062.39 247.006L2128.48 266.13L2217.25 206.979L2275.14 179.975L2309.3 327.7L2061.95 443.715L568.737 545.428L144 249.134L177.213 171.519Z" fill="#D7D7D7"/>
<path d="M79.5986 536.7L120.06 262.667L157.762 234.161L176.154 251.633L294.779 154.158L303.055 127.49L331.562 143.123L357.31 168.871L397.771 166.112L409.725 153.238L462.141 231.402L486.05 221.287L521.913 260.828L565.133 283.818L628.584 227.724L675.482 165.193L686.517 191.86L709.506 199.217L746.289 249.793L851.121 343.59L943.078 338.072L1002.85 282.898L1018.48 300.37L1117.62 251.75L1329.83 377.23L1436.67 373.666L1544.29 336.888L1567.7 313.476L1592.23 309.017L1625.67 315.706L1680.3 284.49L1712.63 252.16L1722.66 245.471L1737.16 227.633L1758.34 249.93L1814.08 292.294L1844.18 307.902L1880.97 283.375L1906.61 253.275L1938.94 264.423L1973.5 218.714L2016.98 230.978L2067.15 193.073L2082.76 225.403L2131.81 257.734L2149.65 278.916L2233.61 335.702L2208.29 598.002L79.5986 536.7Z" fill="#878787"/>
<path d="M105.215 422.715L177.803 385.321L312.714 426.381L344.242 405.118L366.239 406.584L452.025 347.194L487.952 349.393L507.749 336.929L565.673 344.261L696.918 278.272L726.979 251.876L759.241 267.273L781.237 271.673L803.234 287.07L834.064 286.283L864.024 278.468L919.384 320.802L961.066 316.894L1080.18 361.306L1212.43 308.927L1246.32 283.103L1264.08 304.892L1308.71 316.996L1331.46 336.216L1402.06 354.652L1420.11 364.458L1480.51 354.652L1495.81 367.988L1519.74 373.872L1533.86 373.48L1552.3 386.424L1600.04 389.5L1644.21 405.476L1683.86 410.721L1708.18 398.562L1768.4 410.721L1811.25 400.299L1854.1 396.825L1887.23 400.565L1949.1 371.036L1972.3 369.63L2013.08 366.818L2062.3 363.303L2205.95 306.989L2208.29 598L0 591.72L105.215 422.715Z" fill="#242424"/>
<path d="M148 440H2176.81V728H148V440Z" fill="#242424"/>
</svg>
