<svg id="Layer_1" data-name="Layer 1" xmlns="http://www.w3.org/2000/svg" xmlns:xlink="http://www.w3.org/1999/xlink" viewBox="0 0 2055 586"><defs><style>.cls-1{fill:none;}.cls-2{clip-path:url(#clip-path);}.cls-3{fill:#d7d7d7;}.cls-4{fill:#878787;}.cls-5{fill:#242424;}</style><clipPath id="clip-path"><rect class="cls-1" x="0.35" y="0.33" width="2055" height="586"/></clipPath></defs><g class="cls-2"><path class="cls-3" d="M28.56,171.85l55.11-40.31,29.58,18.81,44.36-32.24h32.26l64.52-36.28,150.55,86,39-10.75L623.25,270.6l80.1-46.35,17.2,17.9,77.21-26.87,38.61,2.93,22-33.7,34.7-8.31,55.22,5.38,59.85-39.24,45.64-49.16,26-6.3,20.46-33.82L1132,73.29l9.07,26.7,72.5,50.54L1239.31,162l39.12-7.16,62.35-60.51,14.32-8.09,17.43,19.91,29.89-21.78L1408.64,57l20.55-27.39,19.92,15.56,51.68-10,34.87-18.67L1555,.33l19.12,24.89,5.05,20.72,54.92,32.49,24.09,32.49,46.52,33.61,22.42-16.24,21.49,3.43L1776,150.54l26.9,8.07,110.83,88.73,66.09,19.12,88.77-59.15,57.89-27L2160.65,328l-247.35,116L420.09,545.76-4.65,249.47Z"/><path class="cls-4" d="M-69,537l40.46-274,37.7-28.51L27.5,252l118.63-97.48,8.27-26.67,28.51,15.64,25.75,25.74,40.46-2.76,11.95-12.87,52.42,78.16,23.91-10.11,35.86,39.54,43.22,23,63.45-56.09,46.9-62.53,11,26.66,23,7.36,36.78,50.58,104.83,93.79,92-5.52,59.77-55.17,15.63,17.47L969,252.08l212.21,125.48L1288,374l107.62-36.78,23.41-23.41,24.53-4.46L1477,316l54.63-31.22L1564,252.49l10-6.69,14.5-17.83,21.18,22.29,55.74,42.37,30.1,15.6,36.79-24.52,25.64-30.1,32.33,11.15,34.56-45.71,43.48,12.26,50.17-37.9,15.61,32.33,49.05,32.33L2001,279.25,2085,336l-25.32,262.3Z"/><path class="cls-5" d="M-43.44,423.05l72.59-37.4,134.91,41.06,31.53-21.26,22,1.47,85.78-59.39,35.93,2.2,19.8-12.47L417,344.59l131.25-66,30.06-26.39,32.26,15.4,22,4.4,22,15.39,30.83-.78,30-7.82,55.36,42.33,41.69-3.9,119.11,44.41,132.25-52.38,33.89-25.82,17.76,21.78,44.63,12.11,22.75,19.22,70.6,18.43,18,9.81,60.4-9.81,15.3,13.34,23.93,5.88,14.12-.39,18.44,12.95,47.74,3.07,44.17,16,39.65,5.24,24.32-12.16,60.22,12.16,42.85-10.42,42.85-3.47,33.13,3.74,61.87-29.53,23.2-1.41,40.78-2.81,49.22-3.51,143.65-56.32,2.34,291-2208.29-6.28Z"/></g></svg>