<svg width="383" height="238" viewBox="0 0 383 238" fill="none" xmlns="http://www.w3.org/2000/svg">
<path d="M382.999 -0.000244141L0 0V122.518L2.91052 122.518C38.3935 122.518 67.2298 149.686 87.8283 178.578C113.059 213.968 154.445 237.045 201.22 237.045C253.911 237.045 299.763 207.761 323.388 164.581C335.828 141.844 357.082 122.518 382.999 122.518V122.518V-0.000244141Z" fill="white"/>
<g clip-path="url(#clip0_183_1055)">
<path d="M204.045 68.0283H201.062V89.4746H204.045V68.0283Z" fill="#C5283D"/>
<path d="M209.802 93.6937H194.889V95.8834H209.802V93.6937Z" fill="#5B6976"/>
<path d="M190.057 89.4739C191.562 90.3701 192.642 91.651 192.736 93.8251L202.46 93.8193L212.184 93.8251C212.278 91.651 213.358 90.3701 214.864 89.4739H202.46H190.057Z" fill="#1B294D"/>
<path d="M181.707 68.0276L185.564 87.6513C185.853 88.7087 186.474 89.4787 187.286 89.4787H202.461H217.636C218.448 89.4787 219.069 88.7087 219.358 87.6513L223.215 68.0276H202.461H181.707Z" fill="#C5283D"/>
<path d="M183.502 77.1571L182.456 71.8505H222.464L221.42 77.1571H183.502Z" fill="#1B294D"/>
<path d="M202.46 26.0002L200.975 50.1214L198.821 50.6965C198.479 50.7879 198.343 51.4461 199.023 51.4461H200.23C200.313 51.6662 200.34 51.9011 200.805 52.0196V54.1191H196.146C195.277 54.0968 194.598 54.2553 194.909 55.3526L195.475 57.4555C186.681 58.1146 184.074 61.5818 181.967 65.2755C180.711 65.1919 179.455 65.3324 178.198 65.6294L179.155 68.0279H202.46H225.764L226.722 65.6294C225.465 65.3324 224.209 65.1919 222.953 65.2755C220.846 61.5818 218.24 58.1146 209.446 57.4555L210.01 55.3526C210.321 54.2553 209.643 54.0968 208.773 54.1191H204.115V52.0196C204.58 51.9011 204.607 51.6662 204.691 51.4461H205.897C206.577 51.4461 206.441 50.7879 206.099 50.6965L203.945 50.1214L202.46 26.0002Z" fill="#1B294D"/>
<path d="M211.522 162.886V118.089L215.745 113.879H219.859V118.005L224.961 123.092V162.886H211.522Z" fill="#1B294D"/>
<path d="M217.81 162.886V147.513H218.758V147.105H219.616V147.515H220.556V146.959L223.311 146.993V146.314H224.233V146.993H226.421V134.241H227.314V133.776H228.662V134.206H230.004V123.161H230.886L235.572 124.161C235.561 124.044 235.558 123.916 235.553 123.867C235.764 123.881 235.759 123.88 236.286 123.925C236.295 124.118 236.296 124.121 236.304 124.318L237.138 124.496V162.886H217.81Z" fill="#C5283D"/>
<path d="M170.501 118.489V120.794H170.218V121.781H169.9V123.007H169.248V125.518H168.554V137.62H164.651V136.886H163.585V139.041H162.859V162.886H175.79H183.071C183.071 144.205 183.027 143.976 183.027 125.518H182.333V123.007H181.681V121.781H181.363V120.794H181.08V118.489H180.778V119.593H170.803V118.489H170.501ZM170.803 119.92H180.778V120.781H180.462V121.833H180.123V123.043H175.79H171.458V121.833H171.119V120.781H170.803V119.92Z" fill="#5B6976"/>
<path d="M177.183 128.145V162.891H192.743V138.488H192.163V137.947H191.009V138.513H190.252V137.205H188.827V136.557C188.827 136.557 189.831 136.294 189.596 136.115C189.405 135.97 187.821 136.371 187.863 136.578C187.898 136.752 188.398 136.624 188.398 136.624V137.218H186.302V126.803H185.002V125.887L179.112 126.594L177.183 128.145Z" fill="#19274B"/>
<path d="M173.517 147.762C173.638 150.785 173.426 156.996 175.967 162.885C176.381 162.885 176.769 162.885 177.181 162.886L177.182 162.891C181.64 162.891 186.629 162.893 191.988 162.893C197.347 162.893 202.335 162.891 206.793 162.891L206.794 162.886C207.206 162.885 207.594 162.886 208.009 162.885C210.55 156.996 210.337 150.785 210.459 147.762C204.589 150.252 198.509 152.07 191.988 152.18C185.466 152.07 179.386 150.252 173.517 147.762H173.517Z" fill="#C5283D"/>
<path d="M204.045 68.0283H201.062V89.4746H204.045V68.0283Z" fill="#C5283D"/>
<path d="M210.018 92.8101V162.886H194.889L194.889 92.7003C204.387 92.5786 204.329 92.4485 210.018 92.8101V92.8101Z" fill="#5B6976"/>
<path d="M190.057 89.4739C191.562 90.3701 192.642 91.651 192.736 93.8251L202.46 93.8193L212.184 93.8251C212.278 91.651 213.358 90.3701 214.864 89.4739H202.46H190.057Z" fill="#1B294D"/>
<path d="M181.707 68.0276L185.564 87.6513C185.853 88.7087 186.474 89.4787 187.286 89.4787H202.461H217.636C218.448 89.4787 219.069 88.7087 219.358 87.6513L223.215 68.0276H202.461H181.707Z" fill="#C5283D"/>
<path d="M183.502 77.1571L182.456 71.8505H222.464L221.42 77.1571H183.502Z" fill="#1B294D"/>
<path d="M202.46 26.0002L200.975 50.1214L198.821 50.6965C198.479 50.7879 198.343 51.4461 199.023 51.4461H200.23C200.313 51.6662 200.34 51.9011 200.805 52.0196V54.1191H196.146C195.277 54.0968 194.598 54.2553 194.909 55.3526L195.475 57.4555C186.681 58.1146 184.074 61.5818 181.967 65.2755C180.711 65.1919 179.455 65.3324 178.198 65.6294L179.155 68.0279H202.46H225.764L226.722 65.6294C225.465 65.3324 224.209 65.1919 222.953 65.2755C220.846 61.5818 218.24 58.1146 209.446 57.4555L210.01 55.3526C210.321 54.2553 209.643 54.0968 208.773 54.1191H204.115V52.0196C204.58 51.9011 204.607 51.6662 204.691 51.4461H205.897C206.577 51.4461 206.441 50.7879 206.099 50.6965L203.945 50.1214L202.46 26.0002Z" fill="#1B294D"/>
<path d="M211.522 162.886V118.089L215.745 113.879H219.859V118.005L224.961 123.092V162.886H211.522Z" fill="#1B294D"/>
<path d="M217.81 162.886V147.513H218.758V147.105H219.616V147.515H220.556V146.959L223.311 146.993V146.314H224.233V146.993H226.421V134.241H227.314V133.776H228.662V134.206H230.004V123.161H230.886L235.572 124.161C235.561 124.044 235.558 123.916 235.553 123.867C235.764 123.881 235.759 123.88 236.286 123.925C236.295 124.118 236.296 124.121 236.304 124.318L237.138 124.496V162.886H217.81Z" fill="#C5283D"/>
<path d="M170.501 118.489V120.794H170.218V121.781H169.9V123.007H169.248V125.518H168.554V137.62H164.651V136.886H163.585V139.041H162.859V162.886H175.79H183.071C183.071 144.205 183.027 143.976 183.027 125.518H182.333V123.007H181.681V121.781H181.363V120.794H181.08V118.489H180.778V119.593H170.803V118.489H170.501ZM170.803 119.92H180.778V120.781H180.462V121.833H180.123V123.043H175.79H171.458V121.833H171.119V120.781H170.803V119.92Z" fill="#5B6976"/>
<path d="M177.183 128.145V162.891H192.743V138.488H192.163V137.947H191.009V138.513H190.252V137.205H188.827V136.557C188.827 136.557 189.831 136.294 189.596 136.115C189.405 135.97 187.821 136.371 187.863 136.578C187.898 136.752 188.398 136.624 188.398 136.624V137.218H186.302V126.803H185.002V125.887L179.112 126.594L177.183 128.145Z" fill="#19274B"/>
<path d="M173.517 147.762C173.638 150.785 173.426 156.996 175.967 162.885C176.381 162.885 176.769 162.885 177.181 162.886L177.182 162.891C181.64 162.891 186.629 162.893 191.988 162.893C197.347 162.893 202.335 162.891 206.793 162.891L206.794 162.886C207.206 162.885 207.594 162.886 208.009 162.885C210.55 156.996 210.337 150.785 210.459 147.762C204.589 150.252 198.509 152.07 191.988 152.18C185.466 152.07 179.386 150.252 173.517 147.762H173.517Z" fill="#C5283D"/>
<path d="M247.031 93.4051C243.162 93.4525 239.692 96.2565 239.936 102.581C240.121 107.395 243.283 111.661 243.76 116.761C245.123 131.305 240.292 143.587 229.649 153.481C224.839 157.954 219.373 161.065 213.348 162.886H255.493C254.2 161.418 252.906 159.951 251.628 158.469C250.029 156.615 249.93 154.878 251.187 152.792C251.864 151.67 252.504 150.527 253.151 149.387C254.131 147.66 255.725 146.81 257.701 147.151C261.069 147.729 264.429 148.355 267.776 149.042C270.95 149.689 273.64 148.24 274.566 145.268C275.446 142.457 274.018 139.72 271.107 138.433C268.113 137.105 265.152 135.709 262.193 134.302C260.211 133.359 259.323 131.636 259.572 129.495C259.733 128.096 259.848 126.693 259.97 125.291C260.11 123.661 261.395 122.038 263.102 121.603C266.414 120.764 269.733 119.948 273.076 119.244C276.064 118.616 278.215 116.173 277.982 113.439C277.713 110.314 275.501 108.225 272.284 108.127C270.616 108.076 268.947 108.117 267.277 108.117C262.119 107.945 267.277 108.117 262.119 107.945C260.043 107.924 258.457 106.753 257.817 104.794C257.379 103.455 256.964 102.107 256.522 100.77C255.168 96.0669 250.9 93.3578 247.031 93.4052L247.031 93.4051ZM152.967 93.4448C149.099 93.3974 144.83 96.1066 143.476 100.81C143.034 102.147 142.619 103.495 142.181 104.833C141.541 106.793 139.955 107.964 137.879 107.985L132.721 108.157C131.051 108.157 129.382 108.115 127.714 108.167C124.497 108.265 122.286 110.354 122.016 113.479C121.783 116.213 123.934 118.656 126.922 119.284C130.266 119.987 133.584 120.803 136.896 121.643C138.603 122.078 139.888 123.7 140.028 125.331C140.15 126.733 140.265 128.135 140.426 129.535C140.675 131.675 139.787 133.399 137.805 134.342C134.846 135.749 131.885 137.145 128.891 138.472C125.98 139.759 124.552 142.497 125.432 145.308C126.358 148.279 129.048 149.729 132.222 149.081C135.569 148.395 138.929 147.768 142.297 147.191C144.273 146.85 145.867 147.699 146.847 149.426C147.494 150.567 148.134 151.71 148.812 152.832C150.068 154.918 149.969 156.654 148.37 158.509C147.103 159.977 145.822 161.431 144.54 162.886H186.508C180.539 161.059 175.121 157.958 170.349 153.52C159.707 143.626 154.875 131.345 156.238 116.801C156.715 111.701 159.877 107.435 160.062 102.621C160.306 96.2962 156.836 93.4922 152.968 93.4448L152.967 93.4448Z" fill="#FFBF1A"/>
<path d="M247.031 93.4052C243.114 97.3179 239.692 96.2565 239.936 102.581C240.121 107.395 243.283 111.661 243.76 116.761C245.123 131.305 240.292 143.587 229.649 153.481C224.839 157.954 219.373 161.065 213.348 162.886H255.493C254.2 161.418 252.906 159.951 251.628 158.469C250.029 156.615 249.93 154.878 251.187 152.792C251.864 151.67 252.504 150.527 253.151 149.387C254.131 147.66 255.725 146.81 257.701 147.151C261.069 147.729 264.429 148.355 267.776 149.042C270.95 149.689 273.64 148.24 274.566 145.268C275.446 142.457 274.018 139.72 271.107 138.433C268.113 137.105 265.152 135.709 262.193 134.302C260.211 133.359 259.323 131.636 259.572 129.495C259.733 128.096 259.848 126.693 259.97 125.291C260.11 123.661 261.395 122.038 263.102 121.603C266.414 120.764 269.733 119.948 273.076 119.244C276.064 118.616 278.215 116.173 277.982 113.439C277.713 110.314 275.501 108.225 272.284 108.127C270.616 108.076 268.947 108.117 267.277 108.117C265.942 108.223 263.526 108.341 262.119 107.945C260.043 107.924 258.457 106.753 257.817 104.794C257.379 103.455 256.964 102.107 256.522 100.77C255.168 96.0669 250.38 94.7412 247.031 93.4052L247.031 93.4052ZM152.967 93.4448C149.099 93.3974 144.83 96.1066 143.476 100.81C143.034 102.147 142.619 103.495 142.181 104.833C141.541 106.793 139.955 107.964 137.879 107.985C136.138 108.027 133.972 108.126 132.721 108.157C131.051 108.157 129.382 108.115 127.714 108.167C124.497 108.265 122.286 110.354 122.016 113.479C121.783 116.213 123.934 118.656 126.922 119.284C130.266 119.987 133.584 120.803 136.896 121.643C138.603 122.078 139.888 123.7 140.028 125.331C140.15 126.733 140.265 128.135 140.426 129.535C140.675 131.675 139.787 133.399 137.805 134.342C134.846 135.749 131.885 137.145 128.891 138.472C125.98 139.759 124.552 142.497 125.432 145.308C126.358 148.279 129.048 149.729 132.222 149.081C135.569 148.395 138.929 147.768 142.297 147.191C144.273 146.85 145.867 147.699 146.847 149.426C147.494 150.567 148.134 151.71 148.812 152.832C150.068 154.918 149.969 156.654 148.37 158.509C147.103 159.977 145.822 161.431 144.54 162.886H186.508C180.539 161.059 175.121 157.958 170.349 153.52C159.707 143.626 154.875 131.345 156.238 116.801C156.715 111.701 159.877 107.435 160.062 102.621C160.306 96.2962 156.836 93.4922 152.968 93.4448L152.967 93.4448Z" fill="#FFBF1A"/>
<path d="M123.557 164.359V168.63C144.017 169.745 152.704 179.423 158.984 186H165.252C171.462 179.497 179.985 168.671 200.002 168.672C220.014 168.673 228.535 179.498 234.745 186H241.012C247.292 179.423 255.979 169.745 276.44 168.63V164.359H256.448H254.463H241.012H240.919H234.838H200.679H165.252H165.158H159.078H123.557ZM140.983 167.815C141.927 167.803 142.803 168.215 143.254 168.755V170.448C141.781 169.684 140.293 169.102 138.782 168.795C139.437 168.101 140.232 167.824 140.983 167.815V167.815ZM183.252 167.815C184.004 167.825 184.798 168.101 185.453 168.795C183.942 169.102 182.455 169.684 180.982 170.448V168.755C181.433 168.215 182.309 167.804 183.252 167.815V167.815ZM216.744 167.815C217.687 167.803 218.563 168.215 219.014 168.755V170.448C217.542 169.684 216.054 169.102 214.543 168.795C215.198 168.101 215.992 167.824 216.744 167.815V167.815ZM259.014 167.815C259.765 167.825 260.559 168.101 261.214 168.795C259.703 169.102 258.216 169.684 256.743 170.448V168.755C257.194 168.215 258.07 167.804 259.014 167.815V167.815ZM176.173 168.529C176.884 168.546 177.682 168.847 178.531 169.663V171.487C176.916 172.243 175.494 173.226 174.246 174.413H173.373V169.803C173.838 169.426 174.779 168.574 176.008 168.53C176.063 168.528 176.117 168.528 176.173 168.529V168.529ZM223.823 168.529C223.879 168.528 223.934 168.528 223.988 168.53C225.218 168.574 226.158 169.426 226.623 169.803V174.413H225.75C224.415 173.143 222.882 172.107 221.127 171.333V170.014C222.102 168.931 223.019 168.549 223.823 168.529V168.529ZM251.934 168.529C252.693 168.548 253.551 168.888 254.463 169.834V171.408C252.777 172.173 251.299 173.184 250.006 174.413H249.134V169.803C249.599 169.426 250.539 168.574 251.769 168.53H251.769C251.824 168.528 251.878 168.528 251.934 168.529V168.529ZM148.228 168.53C149.457 168.574 150.397 169.426 150.862 169.803V174.413H149.99C148.622 173.112 147.048 172.056 145.239 171.277V170.111L145.264 170.128C146.345 168.878 147.357 168.499 148.228 168.53L148.228 168.53ZM155.824 169.63C156.79 169.63 157.882 170.176 158.984 171.658V181.098H157.903C156.431 179.126 154.666 177.555 152.848 176.057V171.736C153.388 170.682 154.484 169.631 155.824 169.63V169.63ZM168.412 169.63C169.449 169.631 170.338 170.261 170.938 171.033V176.433C169.28 177.819 167.683 179.289 166.333 181.098H165.252V171.658C166.354 170.176 167.446 169.63 168.412 169.63V169.63ZM231.584 169.63C232.55 169.63 233.643 170.176 234.745 171.658V181.098H233.664C232.237 179.187 230.534 177.653 228.775 176.197V171.442C229.357 170.495 230.369 169.631 231.584 169.63V169.63ZM244.173 169.63C245.342 169.631 246.324 170.43 246.915 171.334V176.252C245.18 177.692 243.502 179.211 242.093 181.098H241.012V171.658C242.114 170.176 243.207 169.63 244.173 169.63V169.63Z" fill="#19274B"/>
</g>
<defs>
<clipPath id="clip0_183_1055">
<rect width="156" height="160" fill="white" transform="translate(121.999 25.9998)"/>
</clipPath>
</defs>
</svg>
