<svg width="404" height="254" viewBox="0 0 404 254" fill="none" xmlns="http://www.w3.org/2000/svg">
<path d="M391.999 3L9 3.00024V125.518H11.9105C47.3935 125.518 76.2298 152.686 96.8283 181.578C122.059 216.968 163.445 240.045 210.22 240.045C262.911 240.045 308.763 210.761 332.388 167.581C344.828 144.844 366.082 125.518 391.999 125.518V3Z" fill="white"/>
<g filter="url(#filter0_d_145_639)">
<path d="M391.999 3L9 3.00024V125.518H11.9105C47.3935 125.518 76.2298 152.686 96.8283 181.578C122.059 216.968 163.445 240.045 210.22 240.045C262.911 240.045 308.763 210.761 332.388 167.581C344.828 144.844 366.082 125.518 391.999 125.518V3Z" fill="white"/>
</g>
<path d="M213.045 71.0288H210.062V92.4751H213.045V71.0288Z" fill="#C5283D"/>
<path d="M218.802 96.6938H203.889V98.8835H218.802V96.6938Z" fill="#5B6976"/>
<path d="M199.057 92.4741C200.562 93.3703 201.642 94.6512 201.736 96.8253L211.46 96.8195L221.184 96.8253C221.278 94.6512 222.358 93.3703 223.864 92.4741H211.46H199.057Z" fill="#1B294D"/>
<path d="M190.707 71.0278L194.564 90.6515C194.853 91.7089 195.474 92.4789 196.286 92.4789H211.461H226.636C227.448 92.4789 228.069 91.7089 228.358 90.6515L232.215 71.0278H211.461H190.707Z" fill="#C5283D"/>
<path d="M192.502 80.1572L191.456 74.8506H231.464L230.42 80.1572H192.502Z" fill="#1B294D"/>
<path d="M211.46 29.0005L209.975 53.1217L207.821 53.6968C207.479 53.7882 207.343 54.4464 208.023 54.4464H209.23C209.313 54.6665 209.34 54.9014 209.805 55.0199V57.1194H205.146C204.277 57.0971 203.598 57.2556 203.909 58.3529L204.475 60.4558C195.681 61.1149 193.074 64.5821 190.967 68.2758C189.711 68.1922 188.455 68.3327 187.198 68.6297L188.155 71.0282H211.46H234.764L235.722 68.6297C234.465 68.3327 233.209 68.1922 231.953 68.2758C229.846 64.5821 227.24 61.1149 218.446 60.4558L219.01 58.3529C219.321 57.2556 218.643 57.0971 217.773 57.1194H213.115V55.0199C213.58 54.9014 213.607 54.6665 213.691 54.4464H214.897C215.577 54.4464 215.441 53.7882 215.099 53.6968L212.945 53.1217L211.46 29.0005Z" fill="#1B294D"/>
<path d="M220.522 165.886V121.089L224.745 116.879H228.859V121.005L233.961 126.092V165.886H220.522Z" fill="#1B294D"/>
<path d="M226.81 165.886V150.513H227.758V150.105H228.616V150.515H229.556V149.959L232.311 149.993V149.314H233.233V149.993H235.421V137.241H236.314V136.776H237.662V137.206H239.004V126.161H239.886L244.572 127.161C244.561 127.044 244.558 126.916 244.553 126.867C244.764 126.881 244.759 126.88 245.286 126.925C245.295 127.118 245.296 127.121 245.304 127.318L246.138 127.496V165.886H226.81Z" fill="#C5283D"/>
<path d="M179.501 121.489V123.794H179.218V124.781H178.9V126.007H178.248V128.518H177.554V140.62H173.651V139.886H172.585V142.041H171.859V165.886H184.79H192.071C192.071 147.205 192.027 146.976 192.027 128.518H191.333V126.007H190.681V124.781H190.363V123.794H190.08V121.489H189.778V122.593H179.803V121.489H179.501ZM179.803 122.92H189.778V123.781H189.462V124.833H189.123V126.043H184.79H180.458V124.833H180.119V123.781H179.803V122.92Z" fill="#5B6976"/>
<path d="M186.183 131.145V165.891H201.743V141.488H201.163V140.947H200.009V141.513H199.252V140.205H197.827V139.557C197.827 139.557 198.831 139.294 198.596 139.115C198.405 138.97 196.821 139.371 196.863 139.578C196.898 139.752 197.398 139.624 197.398 139.624V140.218H195.302V129.803H194.002V128.887L188.112 129.594L186.183 131.145Z" fill="#19274B"/>
<path d="M182.517 150.762C182.638 153.785 182.426 159.996 184.967 165.885C185.381 165.885 185.769 165.885 186.181 165.886L186.182 165.891C190.64 165.891 195.629 165.893 200.988 165.893C206.347 165.893 211.335 165.891 215.793 165.891L215.794 165.886C216.206 165.885 216.594 165.886 217.009 165.885C219.55 159.996 219.337 153.785 219.459 150.762C213.589 153.252 207.509 155.07 200.988 155.18C194.466 155.07 188.386 153.252 182.517 150.762Z" fill="#C5283D"/>
<path d="M213.045 71.0288H210.062V92.4751H213.045V71.0288Z" fill="#C5283D"/>
<path d="M219.018 95.8104V165.886H203.889V95.7006C213.387 95.5789 213.329 95.4488 219.018 95.8104Z" fill="#5B6976"/>
<path d="M199.057 92.4741C200.562 93.3703 201.642 94.6512 201.736 96.8253L211.46 96.8195L221.184 96.8253C221.278 94.6512 222.358 93.3703 223.864 92.4741H211.46H199.057Z" fill="#1B294D"/>
<path d="M190.707 71.0278L194.564 90.6515C194.853 91.7089 195.474 92.4789 196.286 92.4789H211.461H226.636C227.448 92.4789 228.069 91.7089 228.358 90.6515L232.215 71.0278H211.461H190.707Z" fill="#C5283D"/>
<path d="M192.502 80.1572L191.456 74.8506H231.464L230.42 80.1572H192.502Z" fill="#1B294D"/>
<path d="M211.46 29.0005L209.975 53.1217L207.821 53.6968C207.479 53.7882 207.343 54.4464 208.023 54.4464H209.23C209.313 54.6665 209.34 54.9014 209.805 55.0199V57.1194H205.146C204.277 57.0971 203.598 57.2556 203.909 58.3529L204.475 60.4558C195.681 61.1149 193.074 64.5821 190.967 68.2758C189.711 68.1922 188.455 68.3327 187.198 68.6297L188.155 71.0282H211.46H234.764L235.722 68.6297C234.465 68.3327 233.209 68.1922 231.953 68.2758C229.846 64.5821 227.24 61.1149 218.446 60.4558L219.01 58.3529C219.321 57.2556 218.643 57.0971 217.773 57.1194H213.115V55.0199C213.58 54.9014 213.607 54.6665 213.691 54.4464H214.897C215.577 54.4464 215.441 53.7882 215.099 53.6968L212.945 53.1217L211.46 29.0005Z" fill="#1B294D"/>
<path d="M220.522 165.886V121.089L224.745 116.879H228.859V121.005L233.961 126.092V165.886H220.522Z" fill="#1B294D"/>
<path d="M226.81 165.886V150.513H227.758V150.105H228.616V150.515H229.556V149.959L232.311 149.993V149.314H233.233V149.993H235.421V137.241H236.314V136.776H237.662V137.206H239.004V126.161H239.886L244.572 127.161C244.561 127.044 244.558 126.916 244.553 126.867C244.764 126.881 244.759 126.88 245.286 126.925C245.295 127.118 245.296 127.121 245.304 127.318L246.138 127.496V165.886H226.81Z" fill="#C5283D"/>
<path d="M179.501 121.489V123.794H179.218V124.781H178.9V126.007H178.248V128.518H177.554V140.62H173.651V139.886H172.585V142.041H171.859V165.886H184.79H192.071C192.071 147.205 192.027 146.976 192.027 128.518H191.333V126.007H190.681V124.781H190.363V123.794H190.08V121.489H189.778V122.593H179.803V121.489H179.501ZM179.803 122.92H189.778V123.781H189.462V124.833H189.123V126.043H184.79H180.458V124.833H180.119V123.781H179.803V122.92Z" fill="#5B6976"/>
<path d="M186.183 131.145V165.891H201.743V141.488H201.163V140.947H200.009V141.513H199.252V140.205H197.827V139.557C197.827 139.557 198.831 139.294 198.596 139.115C198.405 138.97 196.821 139.371 196.863 139.578C196.898 139.752 197.398 139.624 197.398 139.624V140.218H195.302V129.803H194.002V128.887L188.112 129.594L186.183 131.145Z" fill="#19274B"/>
<path d="M182.517 150.762C182.638 153.785 182.426 159.996 184.967 165.885C185.381 165.885 185.769 165.885 186.181 165.886L186.182 165.891C190.64 165.891 195.629 165.893 200.988 165.893C206.347 165.893 211.335 165.891 215.793 165.891L215.794 165.886C216.206 165.885 216.594 165.886 217.009 165.885C219.55 159.996 219.337 153.785 219.459 150.762C213.589 153.252 207.509 155.07 200.988 155.18C194.466 155.07 188.386 153.252 182.517 150.762Z" fill="#C5283D"/>
<path d="M256.031 96.4053C252.162 96.4527 248.692 99.2567 248.936 105.581C249.121 110.395 252.283 114.661 252.76 119.761C254.123 134.305 249.292 146.587 238.649 156.481C233.839 160.954 228.373 164.065 222.348 165.886H264.493C263.2 164.418 261.906 162.951 260.628 161.469C259.029 159.615 258.93 157.878 260.187 155.792C260.864 154.67 261.504 153.527 262.151 152.387C263.131 150.66 264.725 149.81 266.701 150.151C270.069 150.729 273.429 151.355 276.776 152.042C279.95 152.689 282.64 151.24 283.566 148.268C284.446 145.457 283.018 142.72 280.107 141.433C277.113 140.105 274.152 138.709 271.193 137.302C269.211 136.359 268.323 134.636 268.572 132.495C268.733 131.096 268.848 129.693 268.97 128.291C269.11 126.661 270.395 125.038 272.102 124.603C275.414 123.764 278.733 122.948 282.076 122.244C285.064 121.616 287.215 119.173 286.982 116.439C286.713 113.314 284.501 111.225 281.284 111.127C279.616 111.076 277.947 111.117 276.277 111.117C271.119 110.945 276.277 111.117 271.119 110.945C269.043 110.924 267.457 109.753 266.817 107.794C266.379 106.455 265.964 105.107 265.522 103.77C264.168 99.0671 259.9 96.358 256.031 96.4054V96.4053ZM161.967 96.445C158.099 96.3976 153.83 99.1068 152.476 103.81C152.034 105.147 151.619 106.495 151.181 107.833C150.541 109.793 148.955 110.964 146.879 110.985L141.721 111.157C140.051 111.157 138.382 111.115 136.714 111.167C133.497 111.265 131.286 113.354 131.016 116.479C130.783 119.213 132.934 121.656 135.922 122.284C139.266 122.987 142.584 123.803 145.896 124.643C147.603 125.078 148.888 126.7 149.028 128.331C149.15 129.733 149.265 131.135 149.426 132.535C149.675 134.675 148.787 136.399 146.805 137.342C143.846 138.749 140.885 140.145 137.891 141.472C134.98 142.759 133.552 145.497 134.432 148.308C135.358 151.279 138.048 152.729 141.222 152.081C144.569 151.395 147.929 150.768 151.297 150.191C153.273 149.85 154.867 150.699 155.847 152.426C156.494 153.567 157.134 154.71 157.812 155.832C159.068 157.918 158.969 159.654 157.37 161.509C156.103 162.977 154.822 164.431 153.54 165.886H195.508C189.539 164.059 184.121 160.958 179.349 156.52C168.707 146.626 163.875 134.345 165.238 119.801C165.715 114.701 168.877 110.435 169.062 105.621C169.306 99.2964 165.836 96.4924 161.968 96.445H161.967Z" fill="#FFBF1A"/>
<path d="M256.031 96.4053C252.114 100.318 248.692 99.2566 248.936 105.581C249.121 110.395 252.283 114.661 252.76 119.761C254.123 134.305 249.292 146.587 238.649 156.481C233.839 160.954 228.373 164.065 222.348 165.886H264.493C263.2 164.418 261.906 162.951 260.628 161.469C259.029 159.615 258.93 157.878 260.187 155.792C260.864 154.67 261.504 153.527 262.151 152.387C263.131 150.66 264.725 149.81 266.701 150.151C270.069 150.729 273.429 151.355 276.776 152.042C279.95 152.689 282.64 151.24 283.566 148.268C284.446 145.457 283.018 142.72 280.107 141.433C277.113 140.105 274.152 138.709 271.193 137.302C269.211 136.359 268.323 134.636 268.572 132.495C268.733 131.096 268.848 129.693 268.97 128.291C269.11 126.661 270.395 125.038 272.102 124.603C275.414 123.764 278.733 122.948 282.076 122.244C285.064 121.616 287.215 119.173 286.982 116.439C286.713 113.314 284.501 111.225 281.284 111.127C279.616 111.076 277.947 111.117 276.277 111.117C274.942 111.223 272.526 111.341 271.119 110.945C269.043 110.924 267.457 109.753 266.817 107.794C266.379 106.455 265.964 105.107 265.522 103.77C264.168 99.067 259.38 97.7413 256.031 96.4053ZM161.967 96.4449C158.099 96.3975 153.83 99.1067 152.476 103.81C152.034 105.147 151.619 106.495 151.181 107.833C150.541 109.793 148.955 110.964 146.879 110.985C145.138 111.027 142.972 111.126 141.721 111.157C140.051 111.157 138.382 111.115 136.714 111.167C133.497 111.265 131.286 113.354 131.016 116.479C130.783 119.213 132.934 121.656 135.922 122.284C139.266 122.987 142.584 123.803 145.896 124.643C147.603 125.078 148.888 126.7 149.028 128.331C149.15 129.733 149.265 131.135 149.426 132.535C149.675 134.675 148.787 136.399 146.805 137.342C143.846 138.749 140.885 140.145 137.891 141.472C134.98 142.759 133.552 145.497 134.432 148.308C135.358 151.279 138.048 152.729 141.222 152.081C144.569 151.395 147.929 150.768 151.297 150.191C153.273 149.85 154.867 150.699 155.847 152.426C156.494 153.567 157.134 154.71 157.812 155.832C159.068 157.918 158.969 159.654 157.37 161.509C156.103 162.977 154.822 164.431 153.54 165.886H195.508C189.539 164.059 184.121 160.958 179.349 156.52C168.707 146.626 163.875 134.345 165.238 119.801C165.715 114.701 168.877 110.435 169.062 105.621C169.306 99.2963 165.836 96.4923 161.968 96.4449H161.967Z" fill="#FFBF1A"/>
<path d="M132.557 167.359V171.63C153.017 172.745 161.704 182.423 167.984 189H174.252C180.462 182.497 188.985 171.671 209.002 171.672C229.014 171.673 237.535 182.498 243.745 189H250.012C256.292 182.423 264.979 172.745 285.44 171.63V167.359H265.448H263.463H250.012H249.919H243.838H209.679H174.252H174.158H168.078H132.557ZM149.983 170.815C150.927 170.803 151.803 171.215 152.254 171.755V173.448C150.781 172.684 149.293 172.102 147.782 171.795C148.437 171.101 149.232 170.824 149.983 170.815ZM192.252 170.815C193.004 170.825 193.798 171.101 194.453 171.795C192.942 172.102 191.455 172.684 189.982 173.448V171.755C190.433 171.215 191.309 170.804 192.252 170.815ZM225.744 170.815C226.687 170.803 227.563 171.215 228.014 171.755V173.448C226.542 172.684 225.054 172.102 223.543 171.795C224.198 171.101 224.992 170.824 225.744 170.815ZM268.014 170.815C268.765 170.825 269.559 171.101 270.214 171.795C268.703 172.102 267.216 172.684 265.743 173.448V171.755C266.194 171.215 267.07 170.804 268.014 170.815ZM185.173 171.529C185.884 171.546 186.682 171.847 187.531 172.663V174.487C185.916 175.243 184.494 176.226 183.246 177.413H182.373V172.803C182.838 172.426 183.779 171.574 185.008 171.53C185.063 171.528 185.117 171.528 185.173 171.529ZM232.823 171.529C232.879 171.528 232.934 171.528 232.988 171.53C234.218 171.574 235.158 172.426 235.623 172.803V177.413H234.75C233.415 176.143 231.882 175.107 230.127 174.333V173.014C231.102 171.931 232.019 171.549 232.823 171.529ZM260.934 171.529C261.693 171.548 262.551 171.888 263.463 172.834V174.408C261.777 175.173 260.299 176.184 259.006 177.413H258.134V172.803C258.599 172.426 259.539 171.574 260.769 171.53C260.824 171.528 260.878 171.528 260.934 171.529ZM157.228 171.53C158.457 171.574 159.397 172.426 159.862 172.803V177.413H158.99C157.622 176.112 156.048 175.056 154.239 174.277V173.111L154.264 173.128C155.345 171.878 156.357 171.499 157.228 171.53ZM164.824 172.63C165.79 172.63 166.882 173.176 167.984 174.658V184.098H166.903C165.431 182.126 163.666 180.555 161.848 179.057V174.736C162.388 173.682 163.484 172.631 164.824 172.63ZM177.412 172.63C178.449 172.631 179.338 173.261 179.938 174.033V179.433C178.28 180.819 176.683 182.289 175.333 184.098H174.252V174.658C175.354 173.176 176.446 172.63 177.412 172.63ZM240.584 172.63C241.55 172.63 242.643 173.176 243.745 174.658V184.098H242.664C241.237 182.187 239.534 180.653 237.775 179.197V174.442C238.357 173.495 239.369 172.631 240.584 172.63ZM253.173 172.63C254.342 172.631 255.324 173.43 255.915 174.334V179.252C254.18 180.692 252.502 182.211 251.093 184.098H250.012V174.658C251.114 173.176 252.207 172.63 253.173 172.63Z" fill="#19274B"/>
<rect y="3" width="68" height="129" fill="white"/>
<rect x="336" y="3" width="68" height="129" fill="white"/>
<defs>
<filter id="filter0_d_145_639" x="1" y="0" width="398.999" height="253.045" filterUnits="userSpaceOnUse" color-interpolation-filters="sRGB">
<feFlood flood-opacity="0" result="BackgroundImageFix"/>
<feColorMatrix in="SourceAlpha" type="matrix" values="0 0 0 0 0 0 0 0 0 0 0 0 0 0 0 0 0 0 127 0" result="hardAlpha"/>
<feOffset dy="5"/>
<feGaussianBlur stdDeviation="4"/>
<feComposite in2="hardAlpha" operator="out"/>
<feColorMatrix type="matrix" values="0 0 0 0 0 0 0 0 0 0 0 0 0 0 0 0 0 0 0.2 0"/>
<feBlend mode="normal" in2="BackgroundImageFix" result="effect1_dropShadow_145_639"/>
<feBlend mode="normal" in="SourceGraphic" in2="effect1_dropShadow_145_639" result="shape"/>
</filter>
</defs>
</svg>
