<svg width="2806" height="2887" viewBox="0 0 2806 2887" fill="none" xmlns="http://www.w3.org/2000/svg">
<g clip-path="url(#clip0_7_39)">
<path d="M1475.78 758.168H1422.11V1145.05H1475.78V758.168Z" fill="#C5283D"/>
<path d="M1579.31 1221.16H1311.07V1260.66H1579.31V1221.16Z" fill="#5B6976"/>
<path d="M1224.16 1145.04C1251.24 1161.2 1270.67 1184.31 1272.36 1223.53L1447.27 1223.42L1622.16 1223.53C1623.86 1184.31 1643.29 1161.2 1670.37 1145.04H1447.27H1224.16Z" fill="#1B294D"/>
<path d="M1073.96 758.155L1143.33 1112.16C1148.53 1131.23 1159.7 1145.12 1174.31 1145.12H1447.26H1720.22C1734.83 1145.12 1745.99 1131.23 1751.19 1112.16L1820.57 758.155H1447.26H1073.96Z" fill="#C5283D"/>
<path d="M1106.26 922.847L1087.44 827.119H1807.07L1788.3 922.847H1106.26Z" fill="#1B294D"/>
<path d="M1447.27 0.00439453L1420.55 435.138L1381.81 445.512C1375.66 447.161 1373.21 459.034 1385.44 459.034H1407.15C1408.64 463.006 1409.13 467.243 1417.5 469.381V507.255H1333.7C1318.07 506.853 1305.86 509.71 1311.45 529.505L1321.62 567.442C1163.44 579.33 1116.55 641.877 1078.65 708.509C1056.06 707.002 1033.46 709.537 1010.86 714.895L1028.08 758.161H1447.27H1866.45L1883.66 714.895C1861.07 709.537 1838.47 707.002 1815.87 708.509C1777.97 641.877 1731.1 579.33 1572.92 567.442L1583.08 529.505C1588.67 509.71 1576.46 506.853 1560.83 507.255H1477.03V469.381C1485.4 467.243 1485.89 463.006 1487.39 459.034H1509.09C1521.32 459.034 1518.87 447.161 1512.71 445.512L1473.97 435.138L1447.27 0.00439453Z" fill="#1B294D"/>
<path d="M1610.28 2469.35V1661.24L1686.23 1585.29H1760.22V1659.72L1851.99 1751.49V2469.35H1610.28Z" fill="#1B294D"/>
<path d="M1723.37 2469.35V2192.03H1740.44V2184.67H1755.86V2192.07H1772.78V2182.04L1822.33 2182.65V2170.41H1838.92V2182.65H1878.27V1952.61H1894.33V1944.23H1918.58V1951.98H1942.71V1752.73H1958.58L2042.86 1770.78C2042.67 1768.66 2042.62 1766.36 2042.53 1765.47C2046.32 1765.72 2046.24 1765.71 2055.72 1766.51C2055.88 1770 2055.89 1770.05 2056.04 1773.6L2071.03 1776.81V2469.35H1723.37Z" fill="#C5283D"/>
<path d="M872.416 1668.45V1710.04H867.327V1727.85H861.606V1749.96H849.879V1795.26H837.387V2013.58H767.187V2000.34H748.022V2039.2H734.966V2469.35H967.558H1098.51C1098.51 2132.37 1097.73 2128.23 1097.73 1795.26H1085.24V1749.96H1073.51V1727.85H1067.79V1710.04H1062.7V1668.45H1057.28V1688.38H877.842V1668.45H872.416ZM877.842 1694.28H1057.28V1709.8H1051.58V1728.78H1045.48V1750.61H967.558H889.635V1728.78H883.532V1709.8H877.842V1694.28Z" fill="#5B6976"/>
<path d="M992.588 1842.64V2469.44H1272.47V2029.22H1262.03V2019.47H1241.28V2029.67H1227.67V2006.08H1202.04V1994.4C1202.04 1994.4 1220.1 1989.64 1215.86 1986.42C1212.44 1983.8 1183.95 1991.04 1184.7 1994.77C1185.34 1997.91 1194.32 1995.6 1194.32 1995.6V2006.31H1156.62V1818.44H1133.24V1801.91L1027.28 1814.67L992.588 1842.64Z" fill="#19274B"/>
<path d="M926.654 2196.52C928.841 2251.05 925.021 2363.1 970.729 2469.34C978.179 2469.34 985.161 2469.34 992.565 2469.35L992.586 2469.44C1072.78 2469.44 1162.51 2469.47 1258.9 2469.47C1355.29 2469.47 1445.02 2469.44 1525.21 2469.44L1525.23 2469.35C1532.63 2469.35 1539.62 2469.35 1547.07 2469.34C1592.78 2363.1 1588.95 2251.05 1591.14 2196.52C1485.56 2241.45 1376.2 2274.23 1258.9 2276.22C1141.6 2274.23 1032.23 2241.45 926.653 2196.52H926.654Z" fill="#C5283D"/>
<path d="M1475.78 758.168H1422.11V1145.05H1475.78V758.168Z" fill="#C5283D"/>
<path d="M1583.21 1205.22V2469.35H1311.08L1311.07 1203.24C1481.92 1201.05 1480.87 1198.7 1583.21 1205.22Z" fill="#5B6976"/>
<path d="M1224.16 1145.04C1251.24 1161.2 1270.67 1184.31 1272.36 1223.53L1447.27 1223.42L1622.16 1223.53C1623.86 1184.31 1643.29 1161.2 1670.37 1145.04H1447.27H1224.16Z" fill="#1B294D"/>
<path d="M1073.96 758.155L1143.33 1112.16C1148.53 1131.23 1159.7 1145.12 1174.31 1145.12H1447.26H1720.22C1734.83 1145.12 1745.99 1131.23 1751.19 1112.16L1820.57 758.155H1447.26H1073.96Z" fill="#C5283D"/>
<path d="M1106.26 922.847L1087.44 827.119H1807.07L1788.3 922.847H1106.26Z" fill="#1B294D"/>
<path d="M1447.27 0.00439453L1420.55 435.138L1381.81 445.512C1375.66 447.161 1373.21 459.034 1385.44 459.034H1407.15C1408.64 463.006 1409.13 467.243 1417.5 469.381V507.255H1333.7C1318.07 506.853 1305.86 509.71 1311.45 529.505L1321.62 567.442C1163.44 579.33 1116.55 641.877 1078.65 708.509C1056.06 707.002 1033.46 709.537 1010.86 714.895L1028.08 758.161H1447.27H1866.45L1883.66 714.895C1861.07 709.537 1838.47 707.002 1815.87 708.509C1777.97 641.877 1731.1 579.33 1572.92 567.442L1583.08 529.505C1588.67 509.71 1576.46 506.853 1560.83 507.255H1477.03V469.381C1485.4 467.243 1485.89 463.006 1487.39 459.034H1509.09C1521.32 459.034 1518.87 447.161 1512.71 445.512L1473.97 435.138L1447.27 0.00439453Z" fill="#1B294D"/>
<path d="M1610.28 2469.35V1661.24L1686.23 1585.29H1760.22V1659.72L1851.99 1751.49V2469.35H1610.28Z" fill="#1B294D"/>
<path d="M1723.37 2469.35V2192.03H1740.44V2184.67H1755.86V2192.07H1772.78V2182.04L1822.33 2182.65V2170.41H1838.92V2182.65H1878.27V1952.61H1894.33V1944.23H1918.58V1951.98H1942.71V1752.73H1958.58L2042.86 1770.78C2042.67 1768.66 2042.62 1766.36 2042.53 1765.47C2046.32 1765.72 2046.24 1765.71 2055.72 1766.51C2055.88 1770 2055.89 1770.05 2056.04 1773.6L2071.03 1776.81V2469.35H1723.37Z" fill="#C5283D"/>
<path d="M872.416 1668.45V1710.04H867.327V1727.85H861.606V1749.96H849.879V1795.26H837.387V2013.58H767.187V2000.34H748.022V2039.2H734.966V2469.35H967.558H1098.51C1098.51 2132.37 1097.73 2128.23 1097.73 1795.26H1085.24V1749.96H1073.51V1727.85H1067.79V1710.04H1062.7V1668.45H1057.28V1688.38H877.842V1668.45H872.416ZM877.842 1694.28H1057.28V1709.8H1051.58V1728.78H1045.48V1750.61H967.558H889.635V1728.78H883.532V1709.8H877.842V1694.28Z" fill="#5B6976"/>
<path d="M992.588 1842.64V2469.44H1272.47V2029.22H1262.03V2019.47H1241.28V2029.67H1227.67V2006.08H1202.04V1994.4C1202.04 1994.4 1220.1 1989.64 1215.86 1986.42C1212.44 1983.8 1183.95 1991.04 1184.7 1994.77C1185.34 1997.91 1194.32 1995.6 1194.32 1995.6V2006.31H1156.62V1818.44H1133.24V1801.91L1027.28 1814.67L992.588 1842.64Z" fill="#19274B"/>
<path d="M926.654 2196.52C928.841 2251.05 925.021 2363.1 970.729 2469.34C978.179 2469.34 985.161 2469.34 992.565 2469.35L992.586 2469.44C1072.78 2469.44 1162.51 2469.47 1258.9 2469.47C1355.29 2469.47 1445.02 2469.44 1525.21 2469.44L1525.23 2469.35C1532.63 2469.35 1539.62 2469.35 1547.07 2469.34C1592.78 2363.1 1588.95 2251.05 1591.14 2196.52C1485.56 2241.45 1376.2 2274.23 1258.9 2276.22C1141.6 2274.23 1032.23 2241.45 926.653 2196.52H926.654Z" fill="#C5283D"/>
<path d="M2248.96 1215.96C2179.37 1216.81 2116.96 1267.4 2121.35 1381.49C2124.68 1468.33 2181.56 1545.29 2190.14 1637.29C2214.65 1899.66 2127.75 2121.21 1936.32 2299.69C1849.81 2380.38 1751.48 2436.51 1643.12 2469.36H2401.18C2377.92 2442.87 2354.65 2416.41 2331.65 2389.68C2302.9 2356.22 2301.11 2324.9 2323.72 2287.27C2335.91 2267.03 2347.42 2246.41 2359.05 2225.84C2376.68 2194.68 2405.35 2179.36 2440.89 2185.51C2501.47 2195.93 2561.92 2207.22 2622.11 2219.61C2679.2 2231.3 2727.59 2205.15 2744.26 2151.55C2760.07 2100.84 2734.4 2051.45 2682.03 2028.23C2628.18 2004.28 2574.91 1979.1 2521.7 1953.72C2486.04 1936.71 2470.07 1905.62 2474.54 1867C2477.44 1841.76 2479.52 1816.45 2481.72 1791.17C2484.22 1761.75 2507.33 1732.48 2538.04 1724.63C2597.62 1709.49 2657.31 1694.77 2717.45 1682.08C2771.2 1670.76 2809.89 1626.68 2805.69 1577.37C2800.85 1520.99 2761.07 1483.31 2703.21 1481.53C2673.2 1480.6 2643.17 1481.36 2613.14 1481.36C2520.37 1478.26 2613.14 1481.36 2520.37 1478.26C2483.03 1477.87 2454.49 1456.75 2442.98 1421.4C2435.11 1397.25 2427.64 1372.94 2419.7 1348.82C2395.34 1263.98 2318.56 1215.1 2248.96 1215.96L2248.96 1215.96ZM557.035 1216.67C487.444 1215.82 410.664 1264.69 386.303 1349.53C378.356 1373.66 370.895 1397.97 363.025 1422.11C351.511 1457.47 322.971 1478.59 285.631 1478.97L192.857 1482.08C162.827 1482.08 132.802 1481.32 102.791 1482.25C44.9298 1484.02 5.15349 1521.7 0.312442 1578.08C-3.89214 1627.4 34.8006 1671.47 88.5536 1682.8C148.691 1695.49 208.383 1710.2 267.96 1725.35C298.665 1733.2 321.776 1762.47 324.284 1791.88C326.483 1817.17 328.562 1842.47 331.456 1867.72C335.931 1906.33 319.962 1937.42 284.299 1954.43C231.088 1979.81 177.817 2005 123.968 2028.95C71.6038 2052.16 45.9268 2101.55 61.7423 2152.26C78.4064 2205.86 126.798 2232.01 183.887 2220.33C244.082 2207.94 304.527 2196.64 365.109 2186.23C400.654 2180.08 429.319 2195.4 446.947 2226.55C458.578 2247.12 470.092 2267.75 482.281 2287.99C504.886 2325.61 503.105 2356.94 474.348 2390.4C451.557 2416.89 428.501 2443.11 405.451 2469.36H1160.33C1052.97 2436.39 955.517 2380.47 869.676 2300.4C678.252 2121.92 591.35 1900.37 615.863 1638.01C624.436 1546.01 681.318 1469.05 684.653 1382.2C689.035 1268.11 626.628 1217.53 557.036 1216.67L557.035 1216.67Z" fill="#FFBF1A"/>
<path d="M2248.96 1215.97C2178.52 1286.55 2116.96 1267.41 2121.35 1381.5C2124.68 1468.35 2181.56 1545.3 2190.14 1637.3C2214.65 1899.67 2127.75 2121.22 1936.32 2299.7C1849.81 2380.39 1751.48 2436.52 1643.12 2469.37H2401.18C2377.92 2442.88 2354.65 2416.42 2331.65 2389.69C2302.9 2356.23 2301.11 2324.91 2323.72 2287.29C2335.91 2267.04 2347.42 2246.42 2359.05 2225.85C2376.68 2194.69 2405.35 2179.37 2440.89 2185.52C2501.47 2195.94 2561.92 2207.23 2622.11 2219.62C2679.2 2231.31 2727.59 2205.16 2744.26 2151.56C2760.07 2100.85 2734.4 2051.46 2682.03 2028.24C2628.18 2004.3 2574.91 1979.11 2521.7 1953.73C2486.04 1936.72 2470.07 1905.63 2474.54 1867.02C2477.44 1841.77 2479.52 1816.46 2481.72 1791.18C2484.22 1761.77 2507.33 1732.49 2538.04 1724.64C2597.62 1709.5 2657.31 1694.78 2717.45 1682.09C2771.2 1670.77 2809.89 1626.69 2805.69 1577.38C2800.85 1521 2761.07 1483.32 2703.21 1481.54C2673.2 1480.62 2643.17 1481.37 2613.14 1481.37C2589.13 1483.28 2545.68 1485.41 2520.37 1478.27C2483.03 1477.88 2454.49 1456.76 2442.98 1421.41C2435.11 1397.26 2427.64 1372.96 2419.7 1348.83C2395.34 1263.99 2309.22 1240.07 2248.96 1215.97L2248.96 1215.97ZM557.035 1216.69C487.444 1215.83 410.664 1264.7 386.303 1349.54C378.356 1373.67 370.895 1397.98 363.025 1422.13C351.511 1457.48 322.971 1478.6 285.631 1478.99C254.317 1479.73 215.36 1481.53 192.857 1482.09C162.827 1482.09 132.802 1481.33 102.791 1482.26C44.9298 1484.03 5.15349 1521.72 0.312442 1578.09C-3.89214 1627.41 34.8006 1671.48 88.5536 1682.81C148.691 1695.5 208.383 1710.22 267.96 1725.36C298.665 1733.21 321.776 1762.48 324.284 1791.89C326.483 1817.18 328.562 1842.48 331.456 1867.73C335.931 1906.34 319.962 1937.43 284.299 1954.44C231.088 1979.82 177.817 2005.01 123.968 2028.96C71.6038 2052.17 45.9268 2101.56 61.7423 2152.27C78.4064 2205.87 126.798 2232.02 183.887 2220.34C244.082 2207.95 304.527 2196.65 365.109 2186.24C400.654 2180.09 429.319 2195.41 446.947 2226.56C458.578 2247.13 470.092 2267.76 482.281 2288C504.886 2325.62 503.105 2356.95 474.348 2390.41C451.557 2416.9 428.501 2443.12 405.451 2469.37H1160.33C1052.97 2436.41 955.517 2380.48 869.676 2300.41C678.252 2121.94 591.35 1900.38 615.863 1638.02C624.436 1546.02 681.318 1469.06 684.653 1382.21C689.035 1268.12 626.628 1217.54 557.036 1216.69L557.035 1216.69Z" fill="#FFBF1A"/>
<path d="M28.0317 2495.94V2572.98C396.064 2593.1 552.314 2767.69 665.271 2886.33H778.009C889.708 2769.01 1043.02 2573.71 1403.07 2573.73C1763.02 2573.75 1916.3 2769.02 2027.99 2886.33H2140.73C2253.68 2767.69 2409.93 2593.1 2777.97 2572.98V2495.94H2418.38H2382.67H2140.73H2139.05H2029.67H1415.25H778.01H776.328H666.953H28.0317ZM341.489 2558.28C358.46 2558.07 374.211 2565.5 382.327 2575.24V2605.77C355.838 2591.98 329.078 2581.49 301.901 2575.95C313.68 2563.43 327.968 2558.43 341.489 2558.28ZM1101.79 2558.28C1115.31 2558.45 1129.6 2563.43 1141.38 2575.95C1114.2 2581.49 1087.44 2591.98 1060.95 2605.77V2575.24C1069.07 2565.5 1084.82 2558.08 1101.79 2558.28ZM1704.21 2558.28C1721.18 2558.07 1736.93 2565.5 1745.04 2575.24V2605.77C1718.56 2591.98 1691.8 2581.49 1664.62 2575.95C1676.4 2563.43 1690.69 2558.43 1704.21 2558.28ZM2464.52 2558.28C2478.04 2558.45 2492.32 2563.43 2504.1 2575.95C2476.92 2581.49 2450.17 2591.98 2423.68 2605.77V2575.24C2431.8 2565.5 2447.55 2558.08 2464.52 2558.28ZM974.449 2571.16C987.238 2571.47 1001.6 2576.89 1016.86 2591.61V2624.52C987.815 2638.15 962.246 2655.88 939.787 2677.3H924.094V2594.13C932.458 2587.34 949.37 2571.97 971.485 2571.18C972.465 2571.14 973.45 2571.14 974.449 2571.16V2571.16ZM1831.55 2571.16C1832.55 2571.14 1833.53 2571.14 1834.51 2571.17C1856.63 2571.97 1873.54 2587.33 1881.9 2594.13V2677.29H1866.21C1842.2 2654.39 1814.62 2635.71 1783.05 2621.74V2597.95C1800.58 2578.41 1817.07 2571.51 1831.55 2571.15V2571.16ZM2337.18 2571.16C2350.82 2571.49 2366.26 2577.64 2382.67 2594.71V2623.08C2352.35 2636.89 2325.76 2655.13 2302.51 2677.3H2286.81V2594.13C2295.18 2587.34 2312.09 2571.97 2334.2 2571.18H2334.21C2335.19 2571.14 2336.18 2571.14 2337.18 2571.16V2571.16ZM471.795 2571.17C493.91 2571.97 510.822 2587.33 519.186 2594.13V2677.29H503.493C478.895 2653.84 450.576 2634.78 418.034 2620.72V2599.7L418.487 2600.01C437.922 2577.45 456.125 2570.61 471.795 2571.17L471.795 2571.17ZM608.428 2591.03C625.802 2591.02 645.45 2600.86 665.271 2627.61V2797.9H645.827C619.347 2762.32 587.6 2733.98 554.893 2706.96V2629.01C564.617 2609.99 584.32 2591.04 608.428 2591.03ZM834.852 2591.03C853.503 2591.04 869.496 2602.39 880.292 2616.33V2713.73C850.469 2738.75 821.739 2765.27 797.453 2797.9H778.009V2627.61C797.83 2600.86 817.478 2591.02 834.852 2591.03ZM1971.15 2591.03C1988.52 2591.02 2008.17 2600.86 2027.99 2627.61V2797.9H2008.55C1982.88 2763.41 1952.26 2735.75 1920.62 2709.48V2623.7C1931.08 2606.62 1949.29 2591.04 1971.15 2591.03ZM2197.58 2591.03C2218.61 2591.04 2236.28 2605.45 2246.9 2621.75V2710.48C2215.69 2736.45 2185.51 2763.85 2160.17 2797.9H2140.73V2627.61C2160.55 2600.86 2180.21 2591.02 2197.58 2591.03Z" fill="#19274B"/>
</g>
<defs>
<clipPath id="clip0_7_39">
<rect width="2806" height="2886.32" fill="white"/>
</clipPath>
</defs>
</svg>
