<svg width="23" height="24" viewBox="0 0 23 24" fill="none" xmlns="http://www.w3.org/2000/svg">
<path d="M13.001 2.0005C13.001 0.987353 12.1797 0.166037 11.1665 0.166037C10.1534 0.166037 9.33207 0.987352 9.33207 2.0005L13.001 2.0005ZM9.33207 21.9888C9.33207 23.0019 10.1534 23.8232 11.1665 23.8232C12.1797 23.8232 13.001 23.0019 13.001 21.9888L9.33207 21.9888ZM0.700081 9.91215C-0.0147922 10.6301 -0.0123183 11.7916 0.705607 12.5065C1.42353 13.2213 2.58505 13.2189 3.29992 12.5009L0.700081 9.91215ZM11.1674 2L12.4673 0.705607C12.1231 0.359888 11.6553 0.16554 11.1674 0.16554C10.6795 0.16554 10.2117 0.359888 9.86749 0.705607L11.1674 2ZM19.0349 12.5009C19.7498 13.2189 20.9113 13.2213 21.6292 12.5065C22.3471 11.7916 22.3496 10.6301 21.6347 9.91215L19.0349 12.5009ZM9.33207 2.0005L9.33207 21.9888L13.001 21.9888L13.001 2.0005L9.33207 2.0005ZM3.29992 12.5009L12.4673 3.29439L9.86749 0.705607L0.700081 9.91215L3.29992 12.5009ZM9.86749 3.29439L19.0349 12.5009L21.6347 9.91215L12.4673 0.705607L9.86749 3.29439Z" fill="#19274B"/>
</svg>
