<svg width="149" height="166" viewBox="0 0 149 166" fill="none" xmlns="http://www.w3.org/2000/svg">
<path d="M90.9302 13.1922C90.9302 20.0426 85.4004 25.5724 78.55 25.5724C71.6996 25.5724 66.1698 20.0426 66.1698 13.1922C66.1698 6.34183 71.6996 0.812012 78.55 0.812012C85.4004 0.812012 90.9302 6.34183 90.9302 13.1922ZM45.5361 25.5724C38.6858 25.5724 33.1559 31.1022 33.1559 37.9526C33.1559 44.803 38.6858 50.3328 45.5361 50.3328C52.3865 50.3328 57.9163 44.803 57.9163 37.9526C57.9163 31.1022 52.3865 25.5724 45.5361 25.5724ZM90.9302 83.3467L84.4925 64.7764H108.923L126.75 55.8626C129.804 54.4595 131.042 50.6629 129.474 47.6092C129.125 46.8754 128.632 46.2191 128.025 45.6789C127.418 45.1387 126.709 44.7256 125.939 44.4641C125.17 44.2025 124.356 44.0977 123.546 44.1559C122.735 44.2141 121.944 44.4341 121.22 44.803L114.453 48.1869L110.408 41.254C108.015 35.8892 102.155 32.8355 96.3775 34.156L75.9914 38.5303C70.2965 39.7684 66.1698 44.968 66.1698 50.9105V56.688L46.1139 70.0586H46.1964C45.5361 70.6363 44.6283 71.3791 44.1331 72.3696L36.7875 86.9782L22.0963 94.3238C19.0425 95.7269 17.8045 99.606 19.3727 102.66C20.1196 104.124 21.4161 105.232 22.9783 105.743C24.5406 106.253 26.2414 106.124 27.7087 105.383L46.0314 96.2221L54.615 79.2199L66.1698 91.6001C57.9163 116.361 0.14209 149.374 0.14209 149.374C0.14209 149.374 33.1559 165.881 74.4233 165.881C115.691 165.881 148.704 149.374 148.704 149.374C148.704 149.374 107.437 116.361 90.9302 83.3467ZM114.453 75.836L111.811 77.1566H101.907L102.403 78.4771C106.694 86.9782 112.967 95.7269 119.817 103.485L115.443 75.3408L114.453 75.836Z" fill="white"/>
</svg>
