<svg width="182" height="182" viewBox="0 0 182 182" fill="none" xmlns="http://www.w3.org/2000/svg">
<path fill-rule="evenodd" clip-rule="evenodd" d="M16.4901 0C14.5799 0 12.8768 1.32406 12.2198 3.31521L0.555905 38.7465C0.187621 39.867 -2.69199e-05 41.039 2.89674e-09 42.2184V56.3131C2.89674e-09 64.2828 5.81678 70.7515 12.993 70.7515C20.1692 70.7515 25.9911 64.2828 25.9911 56.3131C25.9911 64.2878 31.8078 70.7515 38.9841 70.7515C46.1603 70.7515 51.9821 64.2828 51.9821 56.3131C51.9821 64.2878 57.7989 70.7515 64.9751 70.7515C72.1513 70.7515 77.9631 64.2929 77.9732 56.3232C77.9732 64.2929 83.79 70.7515 90.9662 70.7515C98.1424 70.7515 103.959 64.2828 103.959 56.3131C103.959 64.2878 109.781 70.7515 116.957 70.7515C124.133 70.7515 129.945 64.2929 129.95 56.3232C129.955 64.2929 135.772 70.7515 142.948 70.7515C150.124 70.7515 155.941 64.2828 155.941 56.3131C155.941 64.2878 161.758 70.7515 168.939 70.7515C176.116 70.7515 181.932 64.2828 181.932 56.3131V42.2184C181.932 41.039 181.745 39.867 181.376 38.7465L169.713 3.32027C169.056 1.32406 167.352 0 165.442 0H16.4901Z" fill="white"/>
<path fill-rule="evenodd" clip-rule="evenodd" d="M19.6961 76.1877V115.676H7.05343C6.38283 115.676 5.73968 115.944 5.26549 116.42C4.7913 116.897 4.5249 117.543 4.5249 118.217V123.299C4.5249 123.973 4.7913 124.619 5.26549 125.096C5.73968 125.572 6.38283 125.84 7.05343 125.84H173.937C174.607 125.84 175.25 125.572 175.725 125.096C176.199 124.619 176.465 123.973 176.465 123.299V118.217C176.465 117.543 176.199 116.897 175.725 116.42C175.25 115.944 174.607 115.676 173.937 115.676H161.294V76.1877C159.177 75.3398 157.222 74.1312 155.514 72.6149C154.203 73.7769 152.746 74.7611 151.18 75.5422V115.676H29.8102V75.5422C28.2444 74.7611 26.7874 73.7769 25.4763 72.6149C23.7771 74.1142 21.8352 75.3339 19.6961 76.1877ZM151.18 66.2419C151.61 65.8099 152.014 65.3475 152.393 64.8545H151.18V66.2419ZM158.634 64.8545C159.398 65.85 160.293 66.7372 161.294 67.4921V64.8545H158.634ZM19.6961 67.4921C20.7019 66.7431 21.5974 65.8551 22.3561 64.8545H19.6961V67.4921ZM28.5965 64.8545H29.8102V66.2419C29.3758 65.8067 28.9704 65.3432 28.5965 64.8545ZM12.1105 136.004C11.4399 136.004 10.7967 136.272 10.3226 136.749C9.84836 137.225 9.58197 137.872 9.58197 138.546V176.662C9.58197 178.009 10.1148 179.302 11.0631 180.255C12.0115 181.208 13.2978 181.744 14.639 181.744H166.351C167.692 181.744 168.978 181.208 169.927 180.255C170.875 179.302 171.408 178.009 171.408 176.662V138.546C171.408 137.872 171.142 137.225 170.667 136.749C170.193 136.272 169.55 136.004 168.88 136.004H12.1105Z" fill="white"/>
</svg>
