<svg width="24" height="23" viewBox="0 0 24 23" fill="none" xmlns="http://www.w3.org/2000/svg">
<path d="M5.61426 0.190735C5.79878 0.190735 5.97574 0.264035 6.10621 0.39451C6.23669 0.524985 6.30999 0.701947 6.30999 0.886466V1.5822H17.4417V0.886466C17.4417 0.701947 17.515 0.524985 17.6455 0.39451C17.7759 0.264035 17.9529 0.190735 18.1374 0.190735C18.3219 0.190735 18.4989 0.264035 18.6294 0.39451C18.7598 0.524985 18.8331 0.701947 18.8331 0.886466V1.5822H20.2246C20.9627 1.5822 21.6705 1.8754 22.1924 2.3973C22.7143 2.9192 23.0075 3.62704 23.0075 4.36512V19.6712C23.0075 20.4093 22.7143 21.1171 22.1924 21.639C21.6705 22.1609 20.9627 22.4541 20.2246 22.4541H3.52707C2.78899 22.4541 2.08114 22.1609 1.55924 21.639C1.03734 21.1171 0.744141 20.4093 0.744141 19.6712V7.14805H23.0075V5.75658H0.744141V4.36512C0.744141 3.62704 1.03734 2.9192 1.55924 2.3973C2.08114 1.8754 2.78899 1.5822 3.52707 1.5822H4.91853V0.886466C4.91853 0.701947 4.99183 0.524985 5.1223 0.39451C5.25278 0.264035 5.42974 0.190735 5.61426 0.190735V0.190735Z" fill="#C5283D"/>
</svg>
