<svg width="23" height="23" viewBox="0 0 23 23" fill="none" xmlns="http://www.w3.org/2000/svg">
<path d="M4.87012 0C5.05464 0 5.2316 0.0733 5.36207 0.203775C5.49255 0.33425 5.56585 0.511212 5.56585 0.695731V1.39146H16.6975V0.695731C16.6975 0.511212 16.7708 0.33425 16.9013 0.203775C17.0318 0.0733 17.2088 0 17.3933 0C17.5778 0 17.7548 0.0733 17.8852 0.203775C18.0157 0.33425 18.089 0.511212 18.089 0.695731V1.39146H19.4805C20.2185 1.39146 20.9264 1.68466 21.4483 2.20656C21.9702 2.72846 22.2634 3.43631 22.2634 4.17439V19.4805C22.2634 20.2185 21.9702 20.9264 21.4483 21.4483C20.9264 21.9702 20.2185 22.2634 19.4805 22.2634H2.78292C2.04485 22.2634 1.337 21.9702 0.8151 21.4483C0.2932 20.9264 0 20.2185 0 19.4805V6.95731H22.2634V5.56585H0V4.17439C0 3.43631 0.2932 2.72846 0.8151 2.20656C1.337 1.68466 2.04485 1.39146 2.78292 1.39146H4.17439V0.695731C4.17439 0.511212 4.24769 0.33425 4.37816 0.203775C4.50864 0.0733 4.6856 0 4.87012 0V0Z" fill="black"/>
</svg>
