<svg width="153" height="168" viewBox="0 0 153 168" fill="none" xmlns="http://www.w3.org/2000/svg">
<path fill-rule="evenodd" clip-rule="evenodd" d="M10.5237 77.2646C12.212 77.2646 13.9004 77.2793 15.5876 77.2604C17.6254 77.2393 19.1832 76.0868 19.8116 74.1574C20.241 72.8396 20.6483 71.5134 21.082 70.1966C21.7367 68.2125 21.2262 66.4611 19.5516 65.1833C16.9107 63.1655 14.2614 61.1604 11.5984 59.1721C9.17645 57.3627 8.51229 54.4998 9.9543 51.9347C11.3542 49.4527 14.2888 48.5349 17.0359 49.7116C20.0379 51 23.0398 52.2936 26.0543 53.5588C28.2278 54.4692 29.9867 54.0251 31.5118 52.2662C32.3265 51.3284 33.1707 50.4169 34.0022 49.4938C35.5295 47.7981 35.7821 46.135 34.719 44.1773C33.1844 41.3406 31.6329 38.5145 30.0383 35.7104C28.4584 32.9264 28.9573 29.9351 31.3655 28.1657C33.7791 26.39 36.6926 26.831 38.924 29.2656C40.9407 31.4634 43.0479 33.5801 45.011 35.821C46.6014 37.6388 48.3655 38.1461 50.7043 37.4377C53.4862 36.5936 56.1271 37.0988 58.328 39.1081C62.2193 42.6595 61.7278 48.9264 57.1796 51.6115C53.2336 53.9408 49.3833 56.3438 46.1414 59.6152C38.8893 66.9274 34.5685 75.6489 33.6096 85.9398C32.2718 100.258 37.0146 112.349 47.4613 122.089C54.6419 128.786 63.2866 132.445 73.1354 133.123C87.0987 134.089 98.8138 129.291 108.269 119.098C114.414 112.476 118.039 104.559 119.038 95.5434C120.715 80.3718 115.712 67.6926 104.363 57.5953C101.682 55.2123 98.479 53.4082 95.4698 51.4094C92.0395 49.1306 90.8174 45.0867 92.5352 41.389C94.1856 37.8377 98.3938 35.9346 102.163 37.3335C104.664 38.2608 106.435 37.6356 108.096 35.7683C110.077 33.5401 112.167 31.4086 114.185 29.2151C116.348 26.8626 119.236 26.4584 121.641 28.2025C124.09 29.9771 124.597 32.9043 123.001 35.7294C121.437 38.4945 119.908 41.2785 118.388 44.0657C117.259 46.134 117.5 47.8865 119.098 49.6453C119.967 50.6011 120.825 51.5673 121.686 52.5283C123.072 54.0661 124.883 54.4861 126.788 53.6809C129.745 52.4304 132.697 51.1663 135.649 49.9001C138.643 48.617 141.628 49.4475 143.05 51.9694C144.559 54.6387 143.763 57.5143 141.056 59.4963C138.454 61.4014 135.896 63.3613 133.34 65.3243C131.771 66.5274 131.25 68.3599 131.871 70.2366C132.305 71.5534 132.756 72.8649 133.189 74.1806C133.85 76.171 135.3 77.3025 137.38 77.3519C140.654 77.4319 143.933 77.5804 147.206 77.4951C150.043 77.4214 152.672 79.4329 152.98 82.7411C153.23 85.4419 151.136 87.7555 148.133 88.4039C144.907 89.1028 141.7 89.909 138.499 90.7121C136.61 91.1868 135.561 92.4762 135.304 94.3814C135.1 95.9034 134.957 97.437 134.812 98.9674C134.643 100.803 135.625 102.397 137.568 103.326C140.469 104.711 143.392 106.055 146.312 107.405C149.175 108.729 150.466 111.46 149.521 114.227C148.538 117.108 145.861 118.45 142.741 117.766C139.562 117.069 136.361 116.458 133.155 115.884C131.186 115.531 129.525 116.414 128.541 118.146C127.856 119.351 127.171 120.558 126.461 121.753C125.449 123.471 125.563 125.308 126.884 126.852C129.04 129.386 131.224 131.9 133.418 134.402C135.473 136.748 135.537 139.75 133.545 141.939C131.613 144.063 128.503 144.25 126.012 142.465C123.353 140.555 120.665 138.687 117.966 136.834C116.204 135.625 114.444 135.696 112.742 136.949C111.706 137.713 110.668 138.471 109.614 139.217C107.727 140.551 107.088 142.307 107.762 144.544C108.677 147.578 109.618 150.605 110.565 153.629C111.502 156.624 110.357 159.539 107.776 160.682C105.004 161.915 102.1 160.794 100.47 157.964C98.8611 155.17 97.1844 152.413 95.4908 149.67C94.3909 147.88 92.7089 147.246 90.6532 147.699C89.3954 147.976 88.1271 148.2 86.8703 148.486C84.4926 149.027 83.3885 150.215 83.0727 152.63C82.6485 155.878 82.2959 159.133 81.8633 162.378C81.5065 165.055 79.9971 166.663 77.4941 167.177C74.5353 167.777 71.6661 165.966 71.184 162.991C70.6356 159.614 70.2725 156.21 69.8704 152.813C69.5662 150.27 68.3031 148.863 65.8033 148.39C64.637 148.169 63.4698 147.968 62.313 147.701C60.2015 147.222 58.5059 147.872 57.3723 149.721C55.6882 152.47 54.0219 155.23 52.3947 158.012C50.7601 160.808 48.0065 161.849 45.2015 160.674C42.5995 159.58 41.3986 156.66 42.3227 153.67C43.2458 150.69 44.1752 147.712 45.0878 144.729C45.8646 142.193 45.293 140.596 43.1185 139.07C42.1059 138.358 41.1165 137.61 40.1218 136.875C38.4819 135.67 36.6852 135.584 35.0179 136.729C32.2834 138.608 29.5635 140.511 26.8658 142.447C24.4586 144.179 21.3862 144.015 19.4379 141.982C17.4517 139.914 17.4243 136.729 19.4179 134.413C21.5556 131.929 23.7471 129.487 25.8869 127C27.4563 125.174 27.5532 123.465 26.3195 121.411C25.6543 120.307 25.0259 119.181 24.3913 118.059C23.4292 116.358 21.8651 115.522 19.9252 115.858C16.6191 116.426 13.3204 117.043 10.0353 117.719C6.91976 118.357 4.27888 116.929 3.36947 114.004C2.50636 111.237 3.90732 108.541 6.76503 107.274C9.70379 105.968 12.611 104.593 15.515 103.208C17.4612 102.28 18.3327 100.583 18.0885 98.4758C17.9306 97.098 17.8169 95.7171 17.697 94.3372C17.5601 92.732 16.2991 91.1342 14.6235 90.7058C11.3721 89.8796 8.11442 89.0764 4.83253 88.3839C1.89903 87.766 -0.212407 85.3609 0.0170521 82.6695C0.281245 79.5928 2.45163 77.5361 5.60932 77.4393C7.24711 77.3888 8.88595 77.4298 10.5248 77.4298C10.5248 77.3751 10.5237 77.3204 10.5237 77.2646Z" fill="white"/>
<path fill-rule="evenodd" clip-rule="evenodd" d="M70.3193 46.6827C70.3193 32.8573 70.3172 19.0308 70.3193 5.20538C70.3193 1.81824 72.256 -0.140587 75.6958 0.00782776C77.1304 0.0688782 78.6651 0.312019 79.9355 0.925659C81.5228 1.68983 82.0017 3.29709 82.0006 5.08012C81.9785 27.5597 81.9859 50.0382 81.9859 72.5168C81.9859 77.5901 81.808 82.6698 82.0375 87.7326C82.2606 92.746 78.5156 94.0048 75.0842 93.5996C71.6445 93.1944 70.3193 91.5261 70.3193 88.0105V46.6827Z" fill="white"/>
</svg>
