<svg width="10" height="8" viewBox="0 0 10 8" fill="none" xmlns="http://www.w3.org/2000/svg">
<path d="M8.46126 0.633373C7.82791 0.338126 7.14218 0.123835 6.42787 2.19045e-05C6.42161 -0.000178388 6.41538 0.000996921 6.40962 0.00346522C6.40386 0.00593351 6.39871 0.00963485 6.39454 0.0143081C6.30882 0.171455 6.20882 0.376223 6.14215 0.53337C5.38451 0.419081 4.61401 0.419081 3.85637 0.53337C3.78971 0.371461 3.6897 0.171455 3.59922 0.0143081C3.59446 0.00478404 3.58018 2.19045e-05 3.56589 2.19045e-05C2.85158 0.123835 2.17061 0.338126 1.5325 0.633373C1.52774 0.633373 1.52298 0.638135 1.51822 0.642897C0.222941 2.58105 -0.134211 4.46681 0.0419841 6.33353C0.0419841 6.34305 0.0467461 6.35258 0.0562701 6.35734C0.913436 6.98593 1.73727 7.36689 2.55158 7.61928C2.56586 7.62404 2.58015 7.61928 2.58491 7.60975C2.77539 7.34784 2.94683 7.07164 3.09445 6.78116C3.10397 6.76211 3.09445 6.74306 3.0754 6.7383C2.80396 6.63354 2.54681 6.50972 2.29443 6.36686C2.27538 6.35734 2.27538 6.32877 2.28966 6.31448C2.34205 6.27638 2.39443 6.23353 2.44681 6.19543C2.45634 6.18591 2.47062 6.18591 2.48015 6.19067C4.11829 6.93831 5.885 6.93831 7.50409 6.19067C7.51362 6.18591 7.5279 6.18591 7.53743 6.19543C7.58981 6.23829 7.64219 6.27638 7.69457 6.31924C7.71362 6.33353 7.71362 6.3621 7.68981 6.37162C7.44219 6.51925 7.18027 6.6383 6.90884 6.74306C6.88979 6.74783 6.88503 6.77164 6.88979 6.78592C7.04218 7.07641 7.21361 7.3526 7.39933 7.61452C7.41362 7.61928 7.4279 7.62404 7.44219 7.61928C8.26126 7.36689 9.08509 6.98593 9.94226 6.35734C9.95178 6.35258 9.95654 6.34305 9.95654 6.33353C10.1661 4.17633 9.60891 2.30485 8.48031 0.642897C8.47555 0.638135 8.47079 0.633373 8.46126 0.633373ZM3.34207 5.1954C2.85159 5.1954 2.44205 4.74301 2.44205 4.18585C2.44205 3.62869 2.84206 3.1763 3.34207 3.1763C3.84685 3.1763 4.24686 3.63345 4.2421 4.18585C4.2421 4.74301 3.84209 5.1954 3.34207 5.1954ZM6.66121 5.1954C6.17072 5.1954 5.76119 4.74301 5.76119 4.18585C5.76119 3.62869 6.1612 3.1763 6.66121 3.1763C7.16599 3.1763 7.566 3.63345 7.56124 4.18585C7.56124 4.74301 7.16599 5.1954 6.66121 5.1954Z" fill="#C5283D"/>
</svg>
