<svg width="187" height="154" viewBox="0 0 187 154" fill="none" xmlns="http://www.w3.org/2000/svg">
<path d="M93.5796 11.2057C82.1124 1.3451 65.488 -0.121764 50.3536 1.39167C32.728 3.17286 14.9393 9.21495 3.85636 14.2558C2.83943 14.7183 1.97708 15.4637 1.37224 16.403C0.767402 17.3422 0.445622 18.4357 0.445312 19.5529L0.445313 147.612C0.445582 148.586 0.690222 149.545 1.15682 150.4C1.62343 151.254 2.29707 151.979 3.11606 152.506C3.93505 153.033 4.8732 153.346 5.84458 153.416C6.81595 153.487 7.7895 153.313 8.67605 152.91C18.9441 148.253 35.4871 142.653 51.5178 141.035C67.9211 139.382 81.67 142.048 89.0393 151.245C89.5847 151.925 90.2759 152.473 91.0617 152.85C91.8475 153.227 92.708 153.423 93.5796 153.423C94.4512 153.423 95.3117 153.227 96.0975 152.85C96.8833 152.473 97.5745 151.925 98.1199 151.245C105.489 142.048 119.238 139.382 135.63 141.035C151.672 142.653 168.227 148.253 178.483 152.91C179.37 153.313 180.343 153.487 181.315 153.416C182.286 153.346 183.224 153.033 184.043 152.506C184.862 151.979 185.536 151.254 186.002 150.4C186.469 149.545 186.714 148.586 186.714 147.612V19.5529C186.714 18.4357 186.392 17.3422 185.787 16.403C185.182 15.4637 184.32 14.7183 183.303 14.2558C172.22 9.21495 154.431 3.17286 136.806 1.39167C121.671 -0.133405 105.047 1.3451 93.5796 11.2057Z" fill="white"/>
</svg>
