<svg width="9" height="9" viewBox="0 0 9 9" fill="none" xmlns="http://www.w3.org/2000/svg">
<path d="M4.5 2.58333C4.12092 2.58333 3.75035 2.69574 3.43516 2.90635C3.11996 3.11696 2.8743 3.4163 2.72923 3.76652C2.58416 4.11675 2.54621 4.50213 2.62016 4.87392C2.69412 5.24572 2.87666 5.58724 3.14471 5.85529C3.41276 6.12334 3.75428 6.30588 4.12608 6.37984C4.49787 6.45379 4.88325 6.41584 5.23348 6.27077C5.5837 6.1257 5.88304 5.88004 6.09365 5.56484C6.30426 5.24965 6.41667 4.87908 6.41667 4.5C6.41667 3.99167 6.21473 3.50416 5.85529 3.14471C5.49584 2.78527 5.00833 2.58333 4.5 2.58333ZM4.5 5.41667C4.3187 5.41667 4.14147 5.36291 3.99073 5.26218C3.83998 5.16146 3.72249 5.01829 3.65311 4.85079C3.58373 4.68329 3.56558 4.49898 3.60095 4.32117C3.63632 4.14335 3.72362 3.98002 3.85182 3.85182C3.98002 3.72362 4.14335 3.63632 4.32117 3.60095C4.49898 3.56558 4.68329 3.58373 4.85079 3.65311C5.01829 3.72249 5.16146 3.83998 5.26218 3.99073C5.36291 4.14147 5.41667 4.3187 5.41667 4.5C5.41557 4.74278 5.31864 4.9753 5.14697 5.14697C4.9753 5.31864 4.74278 5.41557 4.5 5.41667ZM6.5 0H2.5C1.83696 0 1.20107 0.263392 0.732233 0.732233C0.263392 1.20107 0 1.83696 0 2.5V6.5C0 7.16304 0.263392 7.79893 0.732233 8.26777C1.20107 8.73661 1.83696 9 2.5 9H6.5C7.16304 9 7.79893 8.73661 8.26777 8.26777C8.73661 7.79893 9 7.16304 9 6.5V2.5C9 1.83696 8.73661 1.20107 8.26777 0.732233C7.79893 0.263392 7.16304 0 6.5 0ZM8 6.5C8 6.89782 7.84196 7.27936 7.56066 7.56066C7.27936 7.84196 6.89782 8 6.5 8H2.5C2.10218 8 1.72064 7.84196 1.43934 7.56066C1.15804 7.27936 1 6.89782 1 6.5V2.5C1 2.10218 1.15804 1.72064 1.43934 1.43934C1.72064 1.15804 2.10218 1 2.5 1H6.5C6.89782 1 7.27936 1.15804 7.56066 1.43934C7.84196 1.72064 8 2.10218 8 2.5V6.5ZM7.33333 2.33333C7.33333 2.46519 7.29423 2.59408 7.22098 2.70371C7.14773 2.81335 7.04361 2.89879 6.92179 2.94925C6.79997 2.99971 6.66593 3.01291 6.53661 2.98719C6.40729 2.96147 6.2885 2.89797 6.19526 2.80474C6.10203 2.7115 6.03853 2.59271 6.01281 2.46339C5.98709 2.33407 6.00029 2.20003 6.05075 2.07821C6.10121 1.95639 6.18665 1.85227 6.29629 1.77902C6.40592 1.70577 6.53481 1.66667 6.66667 1.66667C6.84348 1.66667 7.01305 1.7369 7.13807 1.86193C7.2631 1.98695 7.33333 2.15652 7.33333 2.33333Z" fill="#C5283D"/>
</svg>
