<svg width="2" height="11" viewBox="0 0 2 11" fill="none" xmlns="http://www.w3.org/2000/svg">
<path d="M0.00500011 1.09989C-0.00895689 0.96084 0.006384 0.82041 0.0500336 0.687656C0.0936831 0.554901 0.164672 0.432769 0.258422 0.329137C0.352173 0.225504 0.466603 0.142671 0.594332 0.0859804C0.722062 0.0292898 0.860255 0 1 0C1.13974 0 1.27794 0.0292898 1.40567 0.0859804C1.5334 0.142671 1.64783 0.225504 1.74158 0.329137C1.83533 0.432769 1.90632 0.554901 1.94997 0.687656C1.99362 0.82041 2.00896 0.96084 1.995 1.09989L1.607 7.44996C1.59201 7.60054 1.52159 7.74017 1.40942 7.84173C1.29724 7.9433 1.15132 7.99954 1 7.99954C0.848679 7.99954 0.702759 7.9433 0.590585 7.84173C0.47841 7.74017 0.407989 7.60054 0.393 7.44996L0.00500011 1.09989ZM0 9.99999C0 9.73477 0.105357 9.48041 0.292893 9.29287C0.48043 9.10534 0.734784 8.99998 1 8.99998C1.26522 8.99998 1.51957 9.10534 1.70711 9.29287C1.89464 9.48041 2 9.73477 2 9.99999C2 10.2652 1.89464 10.5196 1.70711 10.7071C1.51957 10.8946 1.26522 11 1 11C0.734784 11 0.48043 10.8946 0.292893 10.7071C0.105357 10.5196 0 10.2652 0 9.99999Z" fill="#C5283D"/>
</svg>
