<svg width="10" height="6" viewBox="0 0 10 6" fill="none" xmlns="http://www.w3.org/2000/svg">
<path d="M2.5 5.9064C1.80833 5.9064 1.21883 5.61836 0.7315 5.04229C0.243833 4.46662 0 3.77025 0 2.9532C0 2.13615 0.243833 1.43959 0.7315 0.863515C1.21883 0.287838 1.80833 0 2.5 0H4C4.14167 0 4.2605 0.0565046 4.3565 0.169514C4.45217 0.282917 4.5 0.423292 4.5 0.59064C4.5 0.757988 4.45217 0.898166 4.3565 1.01118C4.2605 1.12458 4.14167 1.18128 4 1.18128H2.5C2.08333 1.18128 1.72917 1.35355 1.4375 1.69809C1.14583 2.04263 1 2.461 1 2.9532C1 3.4454 1.14583 3.86377 1.4375 4.20831C1.72917 4.55285 2.08333 4.72512 2.5 4.72512H4C4.14167 4.72512 4.2605 4.78162 4.3565 4.89463C4.45217 5.00803 4.5 5.14841 4.5 5.31576C4.5 5.48311 4.45217 5.62328 4.3565 5.73629C4.2605 5.8497 4.14167 5.9064 4 5.9064H2.5ZM3.5 3.54384C3.35833 3.54384 3.23967 3.48714 3.144 3.37373C3.048 3.26073 3 3.12055 3 2.9532C3 2.78585 3.048 2.64548 3.144 2.53207C3.23967 2.41906 3.35833 2.36256 3.5 2.36256H6.5C6.64167 2.36256 6.7605 2.41906 6.8565 2.53207C6.95217 2.64548 7 2.78585 7 2.9532C7 3.12055 6.95217 3.26073 6.8565 3.37373C6.7605 3.48714 6.64167 3.54384 6.5 3.54384H3.5ZM6 5.9064C5.85833 5.9064 5.73967 5.8497 5.644 5.73629C5.548 5.62328 5.5 5.48311 5.5 5.31576C5.5 5.14841 5.548 5.00803 5.644 4.89463C5.73967 4.78162 5.85833 4.72512 6 4.72512H7.5C7.91667 4.72512 8.27083 4.55285 8.5625 4.20831C8.85417 3.86377 9 3.4454 9 2.9532C9 2.461 8.85417 2.04263 8.5625 1.69809C8.27083 1.35355 7.91667 1.18128 7.5 1.18128H6C5.85833 1.18128 5.73967 1.12458 5.644 1.01118C5.548 0.898166 5.5 0.757988 5.5 0.59064C5.5 0.423292 5.548 0.282917 5.644 0.169514C5.73967 0.0565046 5.85833 0 6 0H7.5C8.19167 0 8.78133 0.287838 9.269 0.863515C9.75633 1.43959 10 2.13615 10 2.9532C10 3.77025 9.75633 4.46662 9.269 5.04229C8.78133 5.61836 8.19167 5.9064 7.5 5.9064H6Z" fill="#C5283D"/>
</svg>
