<svg width="37" height="24" viewBox="0 0 37 24" fill="none" xmlns="http://www.w3.org/2000/svg">
<path d="M2.23975 0.520617C1.00279 0.520617 4.79221e-05 1.52336 4.79221e-05 2.76031C4.79221e-05 3.99727 1.00279 5.00001 2.23975 5.00001V0.520617ZM33.5955 5.00001C34.8325 5.00001 35.8352 3.99727 35.8352 2.76031C35.8352 1.52336 34.8325 0.520617 33.5955 0.520617V5.00001ZM2.59766 9.77666C1.36071 9.77666 0.357958 10.7794 0.357958 12.0164C0.357958 13.2533 1.36071 14.2561 2.59766 14.2561V9.77666ZM33.9534 14.2561C35.1904 14.2561 36.1931 13.2533 36.1931 12.0164C36.1931 10.7794 35.1904 9.77666 33.9534 9.77666V14.2561ZM2.59766 19.4521C1.36071 19.4521 0.357958 20.4549 0.357958 21.6918C0.357958 22.9288 1.36071 23.9315 2.59766 23.9315V19.4521ZM33.9534 23.9315C35.1904 23.9315 36.1931 22.9288 36.1931 21.6918C36.1931 20.4549 35.1904 19.4521 33.9534 19.4521V23.9315ZM2.23975 5.00001H33.5955V0.520617H2.23975V5.00001ZM2.59766 14.2561H33.9534V9.77666H2.59766V14.2561ZM2.59766 23.9315H33.9534V19.4521H2.59766V23.9315Z" fill="white"/>
</svg>
