<svg width="9" height="7" viewBox="0 0 9 7" fill="none" xmlns="http://www.w3.org/2000/svg">
<path d="M8.18182 0.204545C7.72773 0.0613636 7.22864 0 6.75 0C5.95227 0 5.09318 0.163636 4.5 0.613636C3.90682 0.163636 3.04773 0 2.25 0C1.45227 0 0.593182 0.163636 0 0.613636V6.60682C0 6.70909 0.102273 6.81136 0.204545 6.81136C0.245455 6.81136 0.265909 6.79091 0.306818 6.79091C0.859091 6.525 1.65682 6.34091 2.25 6.34091C3.04773 6.34091 3.90682 6.50455 4.5 6.95455C5.05227 6.60682 6.05455 6.34091 6.75 6.34091C7.425 6.34091 8.12045 6.46364 8.69318 6.77045C8.73409 6.79091 8.75455 6.79091 8.79545 6.79091C8.89773 6.79091 9 6.68864 9 6.58636V0.613636C8.75455 0.429545 8.48864 0.306818 8.18182 0.204545ZM8.18182 5.72727C7.73182 5.58409 7.24091 5.52273 6.75 5.52273C6.05455 5.52273 5.05227 5.78864 4.5 6.13636V1.43182C5.05227 1.08409 6.05455 0.818182 6.75 0.818182C7.24091 0.818182 7.73182 0.879545 8.18182 1.02273V5.72727Z" fill="#C5283D"/>
</svg>
