<svg width="160" height="166" viewBox="0 0 160 166" fill="none" xmlns="http://www.w3.org/2000/svg">
<path d="M159.907 30.7094V122.486C159.903 125.73 158.612 128.841 156.318 131.135C154.023 133.429 150.912 134.719 147.667 134.723H117.56L134.086 155.375C134.596 156.001 134.977 156.723 135.207 157.497C135.437 158.272 135.512 159.085 135.426 159.888C135.34 160.691 135.096 161.47 134.708 162.179C134.319 162.887 133.794 163.512 133.163 164.017C132.532 164.521 131.807 164.896 131.03 165.119C130.254 165.342 129.44 165.41 128.637 165.317C127.835 165.224 127.058 164.973 126.353 164.579C125.647 164.184 125.027 163.654 124.528 163.018L101.885 134.723H58.8081L36.1656 163.018C35.6663 163.654 35.0461 164.184 34.3407 164.579C33.6354 164.973 32.8588 165.224 32.0559 165.317C31.253 165.41 30.4397 165.342 29.6629 165.119C28.8861 164.896 28.1612 164.521 27.5301 164.017C26.8989 163.512 26.374 162.887 25.9857 162.179C25.5973 161.47 25.3532 160.691 25.2675 159.888C25.1817 159.085 25.256 158.272 25.486 157.497C25.716 156.723 26.0973 156.001 26.6077 155.375L43.1332 134.723H13.0266C9.7815 134.719 6.67032 133.429 4.37566 131.135C2.081 128.841 0.790266 125.73 0.786621 122.486V30.7094C0.790266 27.4651 2.081 24.3547 4.37566 22.0606C6.67032 19.7666 9.7815 18.4762 13.0266 18.4725H74.2267V6.23563C74.2267 4.61292 74.8715 3.05667 76.0192 1.90924C77.1669 0.761807 78.7235 0.117188 80.3467 0.117188C81.9698 0.117188 83.5264 0.761807 84.6742 1.90924C85.8219 3.05667 86.4667 4.61292 86.4667 6.23563V18.4725H147.667C150.912 18.4762 154.023 19.7666 156.318 22.0606C158.612 24.3547 159.903 27.4651 159.907 30.7094Z" fill="white"/>
</svg>
