<svg width="10" height="11" viewBox="0 0 10 11" fill="none" xmlns="http://www.w3.org/2000/svg">
<path d="M2.5 4H3.5C3.63261 4 3.75979 3.94732 3.85355 3.85355C3.94732 3.75979 4 3.63261 4 3.5C4 3.36739 3.94732 3.24021 3.85355 3.14645C3.75979 3.05268 3.63261 3 3.5 3H2.5C2.36739 3 2.24021 3.05268 2.14645 3.14645C2.05268 3.24021 2 3.36739 2 3.5C2 3.63261 2.05268 3.75979 2.14645 3.85355C2.24021 3.94732 2.36739 4 2.5 4ZM9.5 1H5.5V0.5C5.5 0.367392 5.44732 0.240215 5.35355 0.146447C5.25979 0.0526784 5.13261 0 5 0C4.86739 0 4.74021 0.0526784 4.64645 0.146447C4.55268 0.240215 4.5 0.367392 4.5 0.5V1H0.5C0.367392 1 0.240215 1.05268 0.146447 1.14645C0.0526784 1.24021 0 1.36739 0 1.5V6.5C0 6.89782 0.158035 7.27936 0.43934 7.56066C0.720644 7.84196 1.10218 8 1.5 8H3.795L2.645 9.145C2.59814 9.19148 2.56094 9.24678 2.53555 9.30771C2.51017 9.36864 2.4971 9.43399 2.4971 9.5C2.4971 9.56601 2.51017 9.63136 2.53555 9.69229C2.56094 9.75322 2.59814 9.80852 2.645 9.855C2.69148 9.90186 2.74678 9.93906 2.80771 9.96445C2.86864 9.98983 2.93399 10.0029 3 10.0029C3.06601 10.0029 3.13136 9.98983 3.19229 9.96445C3.25322 9.93906 3.30852 9.90186 3.355 9.855L4.5 8.705V9.5C4.5 9.63261 4.55268 9.75979 4.64645 9.85355C4.74021 9.94732 4.86739 10 5 10C5.13261 10 5.25979 9.94732 5.35355 9.85355C5.44732 9.75979 5.5 9.63261 5.5 9.5V8.705L6.645 9.855C6.69148 9.90186 6.74678 9.93906 6.80771 9.96445C6.86864 9.98983 6.93399 10.0029 7 10.0029C7.06601 10.0029 7.13136 9.98983 7.19229 9.96445C7.25322 9.93906 7.30852 9.90186 7.355 9.855C7.40186 9.80852 7.43906 9.75322 7.46445 9.69229C7.48983 9.63136 7.5029 9.56601 7.5029 9.5C7.5029 9.43399 7.48983 9.36864 7.46445 9.30771C7.43906 9.24678 7.40186 9.19148 7.355 9.145L6.205 8H8.5C8.89782 8 9.27936 7.84196 9.56066 7.56066C9.84196 7.27936 10 6.89782 10 6.5V1.5C10 1.36739 9.94732 1.24021 9.85355 1.14645C9.75979 1.05268 9.63261 1 9.5 1ZM9 6.5C9 6.63261 8.94732 6.75979 8.85355 6.85355C8.75979 6.94732 8.63261 7 8.5 7H1.5C1.36739 7 1.24021 6.94732 1.14645 6.85355C1.05268 6.75979 1 6.63261 1 6.5V2H9V6.5ZM2.5 6H5.5C5.63261 6 5.75979 5.94732 5.85355 5.85355C5.94732 5.75979 6 5.63261 6 5.5C6 5.36739 5.94732 5.24021 5.85355 5.14645C5.75979 5.05268 5.63261 5 5.5 5H2.5C2.36739 5 2.24021 5.05268 2.14645 5.14645C2.05268 5.24021 2 5.36739 2 5.5C2 5.63261 2.05268 5.75979 2.14645 5.85355C2.24021 5.94732 2.36739 6 2.5 6Z" fill="#C5283D"/>
</svg>
