<svg width="142" height="183" viewBox="0 0 142 183" fill="none" xmlns="http://www.w3.org/2000/svg">
<path d="M6.07015 0.117188C2.75978 0.117188 0.0761719 2.80078 0.0761719 6.11116V176.19C0.0761719 179.501 2.75976 182.184 6.07014 182.184H135.69C139 182.184 141.684 179.501 141.684 176.19V6.11116C141.684 2.80078 139 0.117188 135.69 0.117188H6.07015ZM91.1096 126.553C91.1096 129.346 88.8453 131.61 86.0522 131.61H35.4781C32.6849 131.61 30.4207 129.346 30.4207 126.553C30.4207 123.759 32.6849 121.495 35.4781 121.495H86.0522C88.8453 121.495 91.1096 123.759 91.1096 126.553ZM111.339 96.2081C111.339 99.0012 109.075 101.265 106.282 101.265H35.4781C32.6849 101.265 30.4207 99.0012 30.4207 96.2081C30.4207 93.4149 32.6849 91.1506 35.4781 91.1506H106.282C109.075 91.1506 111.339 93.4149 111.339 96.2081ZM111.339 65.8636C111.339 68.6567 109.075 70.921 106.282 70.921H35.4781C32.6849 70.921 30.4207 68.6567 30.4207 65.8636C30.4207 63.0704 32.6849 60.8062 35.4781 60.8062H106.282C109.075 60.8062 111.339 63.0704 111.339 65.8636ZM111.339 35.5191C111.339 38.3122 109.075 40.5765 106.282 40.5765H35.4781C32.6849 40.5765 30.4207 38.3122 30.4207 35.5191C30.4207 32.726 32.6849 30.4617 35.4781 30.4617H106.282C109.075 30.4617 111.339 32.726 111.339 35.5191Z" fill="white"/>
</svg>
