<svg width="11" height="11" viewBox="0 0 11 11" fill="none" xmlns="http://www.w3.org/2000/svg">
<path d="M1 3.28571H10.1583M2.14286 1H9.01543C9.16551 1 9.31412 1.02956 9.45278 1.08699C9.59144 1.14443 9.71743 1.22861 9.82355 1.33474C9.92968 1.44086 10.0139 1.56685 10.0713 1.7055C10.1287 1.84416 10.1583 1.99277 10.1583 2.14286V8.99429C10.1584 9.28261 10.0495 9.56032 9.85343 9.77174C9.65738 9.98316 9.38866 10.1127 9.10114 10.1343L9.00971 10.1377L2.13714 10.1046C1.83503 10.1031 1.54581 9.98199 1.33271 9.76782C1.11962 9.55366 0.999996 9.26383 1 8.96171V2.14286C1 1.83975 1.12041 1.54906 1.33474 1.33474C1.54906 1.12041 1.83975 1 2.14286 1V1Z" stroke="#C5283D" stroke-linecap="round" stroke-linejoin="round"/>
<path d="M3.28572 6.14283C3.60131 6.14283 3.85715 5.88699 3.85715 5.5714C3.85715 5.25581 3.60131 4.99997 3.28572 4.99997C2.97013 4.99997 2.71429 5.25581 2.71429 5.5714C2.71429 5.88699 2.97013 6.14283 3.28572 6.14283Z" fill="#C5283D"/>
</svg>
