<svg width="136" height="198" viewBox="0 0 136 198" fill="none" xmlns="http://www.w3.org/2000/svg">
<path d="M44.1222 80.0834C43.6169 78.5218 44.8782 76.9502 46.6367 76.9502H88.8663C90.606 76.9502 91.8645 78.4904 91.3935 80.043L88.64 89.1193H47.0462L44.1222 80.0834Z" fill="white"/>
<path d="M67.7201 0.893066L71.7548 65.7294L72.0176 69.9529L72.1502 72.0825L72.6424 79.9925H62.7977L63.4225 69.9529L67.7201 0.893066Z" fill="white"/>
<path d="M56.4352 68.5907C56.4352 67.9702 56.8875 67.4281 57.5353 67.2722L63.6853 65.7294C64.0626 65.6386 71.3779 65.6371 71.7548 65.7294L78.0361 67.2684C78.6821 67.4267 79.1322 67.9685 79.1322 68.588C79.1322 69.3418 78.473 69.9529 77.6599 69.9529H74.6116H74.2835H72.0176H63.4225H57.9046C57.0931 69.9529 56.4352 69.343 56.4352 68.5907Z" fill="white"/>
<path d="M74.6116 69.9529H71.9864L72.1505 72.3868C72.1505 71.0839 73.1618 69.9529 74.6116 69.9529Z" fill="white"/>
<path d="M60.8291 69.9529L63.4543 69.9529L63.2902 72.3868C63.2902 71.0839 62.279 69.9529 60.8291 69.9529Z" fill="white"/>
<mask id="mask0_281_69" style="mask-type:alpha" maskUnits="userSpaceOnUse" x="6" y="85" width="124" height="83">
<path d="M26.0088 167.61C20.3235 167.61 15.4937 163.754 14.6504 158.541L6.27295 106.764L15.9026 94.6963C15.8576 94.7508 15.9449 94.6413 15.9026 94.6963C20.8743 88.6765 42.1482 85.4683 67.6382 85.4683C92.9851 85.4683 114.163 88.6406 119.289 94.5951C119.198 94.4722 119.392 94.7157 119.289 94.5951L129.003 106.764L120.626 158.541C119.783 163.754 114.953 167.61 109.268 167.61H26.0088Z" fill="#C4C4C4"/>
</mask>
<g mask="url(#mask0_281_69)">
<path d="M-10.8235 43.0752C-10.8238 43.0752 -10.8239 43.0756 -10.8236 43.0757L194.053 114.664C201.617 117.307 202.921 126.861 196.263 130.842L5.96263 244.629C3.17952 246.293 -0.560106 244.419 -0.720097 241.281L-10.8235 43.0752Z" fill="white"/>
<path d="M12.7683 40.0845C12.7681 40.0845 12.7681 40.0847 12.7682 40.0848L110.412 68.0082C118.099 70.2067 119.97 79.6071 113.589 83.9735L31.4374 140.19C28.7698 142.015 24.9247 140.398 24.5483 137.292L12.7683 40.0845Z" fill="white"/>
<rect width="113.064" height="47.2647" rx="3.30913" transform="matrix(0.82756 -0.561377 0.619539 0.784966 31.8618 169.223)" fill="white"/>
<rect width="73.0365" height="18.8388" rx="3.72127" transform="matrix(0.845394 -0.534143 0.592302 0.805716 -4.97998 174.373)" fill="white"/>
<ellipse cx="107.476" cy="162.862" rx="27.6946" ry="25.6752" fill="white"/>
</g>
<path d="M26.6164 167.611C20.0515 167.611 115.078 167.611 108.677 167.611C103.459 167.611 101.008 176.303 100.28 179.517C100.127 180.194 99.531 180.693 98.8365 180.693H36.668C35.9755 180.693 35.3808 180.198 35.2245 179.523C34.4811 176.314 31.9711 167.611 26.6164 167.611Z" fill="white"/>
<path d="M2.80669 110.245L0.877699 105.693C0.563354 104.951 1.00637 104.107 1.79546 103.944L7.17863 102.835C7.26338 102.818 7.34968 102.809 7.43621 102.809H126.137L133.508 103.785C134.37 103.899 134.868 104.823 134.49 105.606L132.219 110.302C132.006 110.743 131.559 111.023 131.07 111.023H3.98202C3.46949 111.023 3.00666 110.717 2.80669 110.245Z" fill="white"/>
<path d="M2.80669 110.245L0.877699 105.693C0.563354 104.951 1.00637 104.107 1.79546 103.944L7.17863 102.835C7.26338 102.818 7.34968 102.809 7.43621 102.809H126.137L133.508 103.785C134.37 103.899 134.868 104.823 134.49 105.606L132.219 110.302C132.006 110.743 131.559 111.023 131.07 111.023H3.98202C3.46949 111.023 3.00666 110.717 2.80669 110.245Z" fill="white"/>
<rect x="45.5337" y="180.619" width="44.462" height="16.7108" fill="white"/>
</svg>
