<svg width="25" height="25" viewBox="0 0 25 25" fill="none" xmlns="http://www.w3.org/2000/svg">
<path d="M5.36351 0.87868C4.19194 -0.292893 2.29244 -0.292893 1.12087 0.87868C-0.0507054 2.05025 -0.0507054 3.94975 1.12087 5.12132L5.36351 0.87868ZM19.8782 23.8787C21.0498 25.0503 22.9493 25.0503 24.1209 23.8787C25.2924 22.7071 25.2924 20.8076 24.1209 19.636L19.8782 23.8787ZM24.1209 5.36396C25.2924 4.19239 25.2924 2.29289 24.1209 1.12132C22.9493 -0.0502526 21.0498 -0.0502526 19.8782 1.12132L24.1209 5.36396ZM1.12087 19.8787C-0.0507057 21.0503 -0.0507057 22.9497 1.12087 24.1213C2.29244 25.2929 4.19193 25.2929 5.36351 24.1213L1.12087 19.8787ZM1.12087 5.12132L19.8782 23.8787L24.1209 19.636L5.36351 0.87868L1.12087 5.12132ZM19.8782 1.12132L1.12087 19.8787L5.36351 24.1213L24.1209 5.36396L19.8782 1.12132Z" fill="white"/>
</svg>
